<?xml version="1.0" standalone="no"?>
<!DOCTYPE svg PUBLIC "-//W3C//DTD SVG 20010904//EN"
 "http://www.w3.org/TR/2001/REC-SVG-20010904/DTD/svg10.dtd">
<svg version="1.0" xmlns="http://www.w3.org/2000/svg"
 width="390.000000pt" height="390.000000pt" viewBox="0 0 390.000000 390.000000"
 preserveAspectRatio="xMidYMid meet">
<metadata>
Created by potrace 1.14, written by Peter Selinger 2001-2017
</metadata>
<g transform="translate(0.000000,390.000000) scale(0.100000,-0.100000)"
fill="#000000" stroke="none">
<path d="M3200 3790 c-14 -16 -30 -29 -36 -30 -7 0 -14 -9 -17 -21 -3 -12 -10
-18 -16 -14 -6 3 -11 0 -11 -8 0 -20 25 -28 39 -14 7 7 11 8 10 2 -1 -5 3 -29
10 -52 11 -41 19 -48 49 -44 6 1 12 -2 13 -6 0 -4 2 -25 5 -46 2 -27 -1 -39
-11 -43 -19 -8 -19 -30 -1 -37 8 -3 14 -20 14 -41 0 -50 12 -65 26 -31 11 26
13 27 28 12 8 -9 17 -15 19 -14 3 1 -2 -3 -10 -10 -8 -7 -19 -14 -25 -16 -31
-10 15 -116 51 -117 6 0 15 -5 19 -12 4 -7 3 -8 -4 -4 -8 5 -12 -2 -12 -18 0
-16 6 -26 15 -26 20 0 19 -29 -1 -37 -15 -6 -15 -7 -1 -18 12 -9 16 -35 19
-121 2 -77 6 -108 15 -107 17 4 13 -56 -5 -66 -11 -6 -14 -32 -12 -127 4 -207
1 -268 -15 -280 -20 -15 -19 -34 1 -34 11 0 14 -8 12 -27 -2 -23 -9 -29 -34
-31 l-31 -3 4 -75 c3 -60 1 -75 -11 -80 -21 -8 -22 -64 -1 -64 8 0 15 -4 15
-9 0 -5 -7 -14 -15 -21 -8 -7 -15 -23 -15 -36 0 -13 -6 -27 -13 -31 -8 -4 -17
-26 -20 -48 -4 -22 -11 -41 -17 -43 -5 -2 -10 -9 -10 -15 0 -7 -9 -29 -20 -50
-11 -21 -18 -42 -15 -47 3 -5 -4 -11 -15 -15 -11 -3 -20 -13 -20 -21 0 -8 -6
-14 -14 -14 -8 0 -13 -8 -11 -17 2 -10 4 -21 4 -25 1 -5 8 -8 16 -8 8 0 15 -5
15 -12 0 -6 2 -9 5 -6 3 3 1 17 -4 31 -7 17 -7 28 0 32 5 4 9 3 8 -2 -1 -4 0
-10 1 -13 1 -3 4 -17 6 -32 4 -21 0 -28 -17 -33 -36 -12 -129 -116 -129 -146
0 -14 -9 -34 -20 -44 -11 -10 -17 -22 -14 -26 3 -5 -2 -9 -10 -9 -15 0 -21
-17 -17 -47 1 -7 -3 -13 -9 -13 -13 0 -90 -77 -90 -90 0 -4 -7 -10 -15 -14 -8
-3 -15 -10 -15 -16 0 -6 4 -9 8 -6 5 3 9 -1 9 -9 0 -12 -3 -12 -15 -2 -8 6
-17 11 -19 10 -25 -19 -46 -51 -50 -79 -5 -32 -43 -120 -43 -100 0 5 -11 -3
-25 -18 -13 -14 -31 -26 -40 -26 -8 0 -15 -4 -15 -10 0 -11 -13 -27 -76 -92
-23 -24 -44 -53 -48 -65 -8 -24 -21 -30 -31 -13 -11 18 -38 12 -31 -7 4 -10 4
-14 0 -10 -10 10 -34 -12 -34 -32 0 -17 -33 -51 -50 -51 -6 0 -10 -4 -10 -9 0
-16 -108 -121 -127 -124 -10 -1 -25 -7 -33 -12 -18 -12 -39 -17 -65 -16 -12 0
-29 -12 -40 -29 -11 -17 -23 -30 -27 -30 -4 0 -13 -7 -21 -15 -8 -8 -32 -15
-53 -17 -22 -2 -44 -9 -50 -17 -6 -7 -26 -15 -45 -17 -19 -2 -38 -10 -44 -17
-5 -6 -28 -13 -50 -14 -22 -1 -61 -3 -87 -4 -29 -1 -49 -7 -52 -15 -3 -8 -17
-14 -31 -14 -14 0 -28 -7 -31 -15 -5 -11 -22 -15 -62 -15 -37 0 -61 -5 -73
-16 -18 -16 -64 -11 -54 7 4 5 -3 9 -13 9 -11 0 -23 -8 -27 -17 -6 -17 -7 -17
-19 0 -16 21 -62 23 -70 2 -7 -19 -26 -19 -26 0 0 20 -56 20 -64 0 -8 -21 -63
-19 -75 2 -5 10 -12 17 -15 16 -20 -9 -87 -1 -100 12 -16 16 -92 20 -115 6 -9
-6 -26 -2 -48 11 -19 12 -53 23 -76 26 -23 2 -46 10 -50 18 -4 8 -15 14 -23
14 -8 0 -25 6 -37 14 -12 8 -38 17 -58 20 -20 4 -48 19 -64 36 -16 17 -36 30
-46 30 -9 0 -22 7 -29 15 -7 8 -20 15 -28 15 -20 0 -122 104 -122 125 0 22
-104 125 -127 125 -32 0 -63 41 -63 83 0 56 -40 87 -79 63 -10 -6 -12 -5 -7 2
4 7 2 12 -3 12 -6 0 -11 7 -11 16 0 8 -4 13 -9 10 -5 -4 -12 0 -14 6 -3 7 -6
-11 -6 -39 -1 -31 3 -53 9 -53 6 0 10 -8 8 -17 -2 -12 3 -17 15 -15 9 2 17 -1
16 -5 -4 -26 2 -63 10 -58 6 3 15 -4 21 -15 7 -13 17 -19 26 -16 8 3 12 2 9
-3 -6 -11 37 -61 53 -61 6 0 9 -7 6 -15 -4 -9 0 -15 9 -15 8 0 17 -7 21 -15 3
-8 13 -15 21 -15 9 0 13 -5 10 -11 -4 -6 2 -13 14 -16 12 -3 21 -11 21 -18 0
-18 20 -24 45 -15 18 7 20 4 17 -30 -3 -31 -1 -38 15 -37 40 0 54 -3 48 -12
-3 -5 4 -12 15 -16 11 -3 19 -9 17 -13 -4 -13 43 -52 63 -52 11 0 23 -7 26
-15 4 -8 12 -15 20 -15 8 0 14 -7 14 -15 0 -10 10 -15 30 -15 20 0 30 -5 30
-15 0 -8 8 -16 18 -16 42 -3 47 -5 47 -19 0 -9 10 -14 30 -15 20 0 31 -6 33
-18 2 -9 8 -14 13 -11 6 3 13 -4 16 -16 4 -14 12 -20 23 -17 13 3 16 0 13 -14
-5 -16 1 -19 39 -19 24 0 49 5 55 11 8 8 13 8 18 0 3 -6 1 -10 -5 -9 -7 2 -14
-5 -15 -14 -3 -15 5 -18 47 -18 40 0 49 -3 44 -15 -6 -16 -3 -17 57 -17 25 0
37 -5 37 -14 0 -16 -3 -15 70 -17 38 -2 54 -6 53 -15 -3 -13 -1 -14 102 -17
95 -3 97 -4 90 -15 -8 -13 -32 -12 334 -12 269 0 316 2 320 14 5 12 25 15 101
14 105 -2 120 0 120 19 0 8 21 12 72 12 50 0 75 5 82 15 7 8 32 15 66 16 36 1
57 7 63 17 4 8 19 15 32 15 29 0 43 18 20 26 -10 4 -14 13 -10 23 3 9 -3 6
-13 -7 -10 -13 -21 -20 -24 -16 -9 9 2 35 13 29 4 -3 12 3 18 13 7 13 19 18
41 16 24 -2 30 1 26 12 -3 9 -1 12 4 9 6 -3 10 -1 10 5 0 6 5 8 12 4 7 -5 9
-2 5 9 -7 19 12 28 34 16 13 -7 18 -3 23 16 4 17 13 25 27 25 16 0 19 -4 15
-16 -5 -14 -4 -15 9 -4 8 7 15 18 15 26 0 7 5 16 12 20 6 4 8 3 5 -3 -3 -5 0
-10 8 -10 8 0 12 4 9 9 -3 4 -3 16 0 26 5 14 14 17 36 14 24 -3 30 -1 30 14 0
9 3 14 6 11 4 -3 14 -2 24 3 10 5 20 6 24 3 4 -4 19 -9 33 -11 22 -2 24 -1 15
11 -9 10 -8 18 4 33 8 10 13 14 10 8 -3 -6 1 -11 8 -11 7 0 13 7 12 16 -1 10
7 16 19 16 14 0 21 -8 23 -28 2 -16 8 -26 15 -24 7 2 11 12 9 21 -2 11 2 16
12 14 8 -2 15 1 15 7 0 5 8 12 18 16 18 6 19 9 22 49 0 11 6 20 12 20 18 0 90
78 78 85 -12 8 -24 -1 -24 -18 0 -7 -7 -12 -15 -12 -8 -1 -14 -6 -12 -13 1 -7
-6 -16 -15 -19 -10 -4 -22 -13 -28 -20 -5 -7 -22 -14 -37 -15 -16 -1 -28 -6
-28 -11 0 -5 9 -5 20 -2 11 3 20 3 20 -2 0 -13 -20 -39 -20 -27 0 6 -7 11 -15
11 -10 0 -12 -4 -5 -12 17 -21 -23 -14 -47 8 -13 12 -30 18 -43 14 -13 -3 -20
0 -20 10 0 8 4 12 9 8 5 -3 12 4 16 15 3 11 13 20 21 20 8 0 14 7 14 15 0 8 7
15 15 15 8 0 15 7 15 16 0 8 4 13 9 9 5 -3 12 4 16 14 3 11 15 23 25 26 11 3
19 9 17 13 -1 4 2 7 7 7 5 0 13 11 17 24 8 19 15 23 43 19 28 -3 32 -1 28 14
-2 10 1 18 8 18 7 0 19 8 27 18 8 9 12 11 8 5 -4 -8 -1 -11 8 -7 8 3 13 18 13
37 -1 25 3 31 16 29 12 -2 15 3 12 20 -4 21 -4 21 4 3 9 -21 -4 -65 -19 -65
-5 0 -4 -12 1 -26 20 -51 11 -81 -22 -75 -5 0 -8 -3 -8 -9 0 -5 -6 -7 -13 -4
-9 3 -13 -2 -12 -15 2 -30 15 -39 26 -18 6 9 17 17 25 17 8 0 12 4 9 10 -3 5
3 15 15 22 11 7 20 19 20 26 0 9 6 12 15 8 9 -3 15 0 15 10 0 8 -7 17 -15 20
-8 4 -15 12 -15 19 0 7 -6 16 -12 18 -10 4 -10 6 0 6 7 1 10 6 7 11 -3 6 4 11
17 11 46 2 50 4 63 29 8 14 15 19 16 13 1 -7 2 -18 3 -25 2 -16 26 -22 27 -6
1 7 2 22 3 33 0 11 8 20 16 20 9 0 14 8 12 18 -2 11 2 15 13 11 8 -3 16 -1 16
5 1 6 2 17 3 24 1 6 -4 20 -12 30 -21 23 -7 34 17 13 17 -15 19 -15 25 -1 9
24 8 25 -11 25 -17 1 -17 1 0 14 14 11 18 29 19 75 1 40 6 62 15 65 7 3 13 15
13 26 0 11 3 20 8 20 4 0 15 7 25 14 18 14 25 33 34 93 3 18 9 31 13 28 15 -9
19 10 22 83 1 47 7 73 15 76 7 3 13 17 13 31 0 15 7 33 14 41 10 9 13 28 11
52 -7 61 4 114 23 110 10 -2 18 -14 18 -27 1 -14 8 -29 15 -35 8 -6 14 -30 14
-55 0 -27 5 -46 13 -48 9 -4 12 12 12 59 0 50 -4 66 -18 77 -15 10 -17 24 -14
74 3 55 7 65 35 90 29 25 30 29 15 38 -22 12 -24 57 -3 65 22 9 22 545 0 564
-19 15 -28 -4 -21 -43 3 -15 1 -27 -4 -27 -13 0 -18 23 -9 52 8 29 2 65 -14
85 -5 7 -7 19 -4 28 4 8 0 20 -7 27 -7 7 -13 28 -13 46 0 18 -7 38 -15 45 -23
18 -31 66 -16 85 11 13 11 14 -2 7 -13 -8 -13 -7 -1 8 12 15 11 17 -3 17 -22
0 -39 46 -31 82 8 35 30 31 30 -5 -1 -20 4 -27 17 -27 16 0 18 -7 15 -44 -3
-36 0 -46 15 -49 12 -3 18 -15 19 -34 0 -15 2 -36 4 -45 2 -10 -1 -20 -6 -23
-5 -4 -3 -12 4 -19 6 -8 15 -12 20 -9 7 4 11 -30 7 -78 0 -14 6 -31 14 -39 14
-11 16 -4 16 69 0 64 -3 81 -14 81 -11 0 -16 14 -18 48 -2 31 -7 46 -15 45
-11 -3 -20 47 -14 80 1 4 -6 10 -14 13 -8 4 -15 17 -15 30 0 13 -9 28 -19 33
-15 8 -18 19 -15 50 3 31 0 40 -15 44 -14 3 -17 -1 -15 -19 3 -28 -11 -32 -25
-6 -7 14 -5 21 8 29 16 10 20 35 12 86 -3 17 -20 5 -29 -20 l-9 -28 -34 48
c-35 50 -41 68 -24 74 18 5 38 -14 40 -39 1 -12 8 -23 15 -23 22 0 19 75 -3
86 -10 6 -14 15 -11 21 5 8 -3 9 -27 5 -19 -3 -28 -3 -21 0 6 2 12 20 12 39 0
20 -4 33 -9 30 -11 -7 -33 18 -24 27 3 4 -1 7 -10 7 -9 0 -17 -7 -17 -15 0 -8
6 -15 14 -15 15 0 24 -25 18 -52 -2 -12 -13 -18 -31 -18 -36 0 -42 7 -29 36 8
17 8 27 -1 38 -10 12 -8 17 8 26 30 15 26 33 -5 27 -18 -3 -22 -1 -15 6 20 20
11 29 -21 23 -18 -3 -26 -3 -18 2 13 6 16 22 11 62 0 5 -8 7 -17 3 -10 -4 -14
-14 -11 -29 3 -16 0 -24 -10 -24 -17 0 -14 39 5 58 14 15 6 36 -9 26 -6 -3
-13 3 -15 13 -4 15 -13 19 -38 18 -29 -2 -33 1 -28 18 3 13 1 18 -5 14 -13 -8
-36 17 -25 28 4 5 1 5 -6 1 -9 -5 -15 -1 -19 13 -4 17 -13 21 -49 21 -30 0
-46 5 -50 15 -9 22 -17 19 -44 -15z m263 -133 c-2 -4 -3 -12 -3 -18 0 -8 -5
-8 -15 1 -20 17 -19 29 3 26 9 -2 16 -6 15 -9z m380 -1563 c3 -3 3 -12 0 -19
-6 -17 -33 -8 -33 11 0 14 21 19 33 8z m-539 -959 c-4 -8 -10 -13 -15 -10 -4
3 -6 12 -3 20 4 8 10 13 15 10 4 -3 6 -12 3 -20z m86 5 c0 -5 -5 -10 -11 -10
-5 0 -7 5 -4 10 3 6 8 10 11 10 2 0 4 -4 4 -10z m-120 -29 c0 -6 -4 -12 -8
-15 -5 -3 -9 1 -9 9 0 8 4 15 9 15 4 0 8 -4 8 -9z m100 1 c0 -13 -12 -22 -22
-16 -10 6 -1 24 13 24 5 0 9 -4 9 -8z m-130 -25 c0 -8 -7 -14 -15 -14 -11 0
-12 4 -4 14 6 7 13 13 15 13 2 0 4 -6 4 -13z m96 -22 c0 -15 -7 -27 -18 -31
-10 -3 -18 -12 -18 -21 0 -8 -5 -13 -12 -11 -20 7 -15 53 5 52 10 -1 17 5 17
17 0 11 6 19 13 19 7 0 13 -11 13 -25z m-66 -80 c0 -8 -7 -15 -16 -15 -8 0
-13 -4 -10 -8 6 -10 -39 -52 -55 -52 -5 0 -8 4 -5 9 3 5 -4 11 -15 14 -22 6
-22 28 1 35 9 3 11 -1 7 -12 -4 -9 -2 -17 3 -17 23 -4 30 -4 28 1 -3 6 45 58
55 59 4 1 7 -6 7 -14z m-3200 -5 c0 -5 -4 -10 -10 -10 -5 0 -10 5 -10 10 0 6
5 10 10 10 6 0 10 -4 10 -10z m3102 -85 c13 -17 9 -21 -26 -21 -30 0 -33 3
-25 18 10 19 38 21 51 3z m-52 -57 c0 -11 -43 -53 -55 -53 -5 0 -9 -8 -9 -18
1 -9 -4 -17 -12 -17 -23 0 -25 19 -4 30 14 8 19 18 16 35 -3 18 0 25 17 27 37
6 47 5 47 -4z m-130 -229 c0 -12 -7 -16 -25 -14 -31 3 -43 14 -28 23 22 14 53
8 53 -9z m-57 -34 c-6 -17 -25 -15 -31 3 -2 7 5 12 17 12 14 0 19 -5 14 -15z
m-38 -25 c-3 -5 -12 -10 -18 -10 -7 0 -6 4 3 10 19 12 23 12 15 0z m-125 -100
c0 -5 -8 -10 -17 -10 -15 0 -16 2 -3 10 19 12 20 12 20 0z"/>
<path d="M3060 3680 c-8 -14 -18 -19 -35 -16 -14 3 -26 0 -26 -5 -1 -5 -2 -19
-3 -31 -1 -17 -8 -24 -26 -26 -26 -4 -52 -21 -34 -23 40 -6 54 -5 54 2 0 21
81 89 106 89 31 0 28 22 -4 26 -14 3 -25 -4 -32 -16z"/>
<path d="M2870 3555 c0 -10 -10 -15 -30 -15 -20 0 -30 -5 -30 -15 0 -21 40
-19 55 2 7 10 23 18 36 18 12 0 24 6 26 13 3 8 -6 12 -26 12 -21 0 -31 -5 -31
-15z"/>
<path d="M3120 3555 c0 -8 -7 -15 -15 -15 -23 0 -19 -47 6 -60 20 -11 20 -12
-6 -38 -14 -14 -36 -27 -47 -29 -12 -2 -26 -11 -33 -20 -11 -15 -16 -13 -46
18 l-33 35 -27 -28 c-15 -16 -36 -31 -48 -33 -12 -2 -28 -11 -37 -19 -8 -9
-23 -16 -31 -16 -9 0 -41 -25 -71 -56 -47 -49 -53 -61 -48 -86 8 -43 -30 -78
-84 -78 -22 0 -40 -3 -41 -7 -4 -40 -40 -99 -53 -86 -3 3 -6 2 -7 -3 0 -5 -2
-24 -3 -41 -3 -44 -9 -48 -72 -49 -52 -1 -54 0 -63 30 l-8 31 -11 -27 c-14
-33 -15 -33 -50 -10 -63 42 -64 42 -104 0 -21 -22 -38 -44 -38 -49 0 -5 -3 -8
-7 -7 -13 4 -65 -50 -54 -56 10 -7 121 95 121 112 0 6 9 10 19 9 11 0 18 -4
15 -8 -6 -10 10 -19 39 -21 21 -2 25 -7 25 -30 -1 -35 -44 -51 -63 -24 -22 29
-35 18 -35 -29 0 -31 -5 -47 -17 -54 -17 -9 -17 -10 0 -16 20 -8 23 -31 4 -38
-21 -8 -80 2 -88 15 -9 14 -116 -77 -118 -99 -1 -7 -12 -13 -26 -13 -34 0 -95
-63 -95 -98 l1 -27 32 36 c18 20 40 35 49 34 9 -2 45 25 81 61 59 58 69 64
106 64 28 0 41 -4 41 -14 0 -7 9 -16 21 -19 18 -5 19 -9 9 -27 -8 -15 -18 -20
-31 -17 -12 3 -23 -1 -29 -13 -5 -10 -17 -20 -25 -24 -9 -3 -13 -2 -10 4 4 6
-5 10 -20 10 -18 0 -37 -12 -58 -35 -21 -24 -37 -33 -48 -30 -12 4 -22 -1 -29
-15 -6 -12 -21 -20 -36 -20 -14 0 -23 -4 -20 -9 6 -9 -19 -24 -41 -26 -6 0
-20 -10 -31 -23 -11 -12 -24 -22 -28 -21 -48 9 -131 -55 -121 -93 3 -11 3 -17
0 -14 -3 3 -12 -2 -20 -10 -9 -8 -28 -18 -44 -21 -32 -6 -41 -24 -36 -69 5
-42 -10 -81 -25 -66 -18 18 -35 14 -41 -8 -6 -22 -45 -28 -65 -8 -21 21 -44
-10 -38 -54 3 -22 2 -36 -4 -33 -5 3 -13 -2 -18 -11 -8 -14 -10 -14 -27 2 -16
17 -16 18 0 30 9 7 23 10 30 8 9 -4 11 2 8 20 -5 25 -33 45 -33 23 -1 -7 -23
-30 -50 -52 -33 -27 -50 -48 -50 -63 0 -12 -7 -25 -15 -28 -8 -4 -15 -17 -15
-29 0 -13 -7 -30 -15 -39 -14 -14 -13 -17 12 -30 16 -8 22 -15 14 -16 -9 0
-10 -4 -4 -12 15 -21 13 -58 -3 -58 -8 0 -14 4 -14 9 0 5 -9 11 -21 14 -15 4
-19 11 -15 24 3 10 1 25 -4 33 -8 12 -10 10 -11 -10 -1 -14 -1 -31 0 -38 1 -7
-3 -11 -10 -10 -7 2 -13 -12 -15 -34 -3 -36 -3 -37 16 -21 10 9 17 20 14 25
-3 4 3 5 12 1 12 -4 15 -3 10 5 -4 7 -3 12 2 12 6 0 13 -7 16 -16 8 -22 8 -26
-4 -19 -5 3 -15 -3 -22 -14 -10 -16 -20 -19 -48 -15 -29 4 -37 2 -37 -11 0 -9
6 -14 14 -11 8 4 11 1 8 -5 -4 -6 -13 -8 -21 -5 -18 7 -66 -34 -60 -50 5 -13
-47 -74 -63 -74 -6 0 -15 -9 -21 -20 -7 -14 -7 -20 0 -20 5 0 10 -4 10 -10 0
-5 -11 -10 -25 -10 -14 0 -25 -5 -25 -11 0 -5 5 -7 10 -4 18 11 10 -4 -15 -30
-14 -14 -23 -25 -19 -25 5 0 -1 -6 -11 -14 -16 -11 -21 -11 -32 0 -7 7 -13 18
-13 25 0 23 -75 -66 -77 -91 -3 -25 -2 -25 27 8 35 38 61 41 76 8 9 -20 8 -27
-7 -39 -9 -9 -20 -12 -24 -9 -4 4 -6 3 -5 -3 5 -24 -2 -42 -26 -69 -15 -15
-27 -38 -28 -49 -1 -14 -9 -23 -21 -25 -16 -3 -17 -1 -5 7 9 7 10 11 3 11 -17
0 -25 -17 -12 -26 7 -4 1 -15 -16 -30 -23 -20 -31 -22 -43 -12 -13 11 -14 10
-8 -9 4 -13 2 -24 -5 -29 -7 -4 -9 -3 -6 3 3 5 0 10 -8 10 -18 0 -20 -13 -4
-23 12 -7 -6 -24 -26 -24 -5 0 -3 5 5 10 9 6 10 10 3 10 -20 0 -26 -20 -11
-37 7 -10 8 -14 1 -10 -6 4 -20 -3 -31 -18 -11 -13 -22 -21 -26 -18 -3 3 -6
36 -6 73 0 66 1 68 42 106 24 22 56 55 72 74 16 19 31 34 32 33 2 -2 5 0 7 5
1 4 -8 8 -21 10 -24 4 -47 36 -37 52 13 21 -13 8 -40 -20 -38 -40 -73 -40 -81
-1 -7 35 -39 47 -57 21 -9 -13 -26 -18 -65 -18 -69 -1 -92 -9 -92 -33 0 -11
-7 -22 -15 -25 -8 -4 -15 -17 -15 -30 0 -28 6 -30 26 -9 9 8 30 15 48 15 23 0
42 9 65 32 22 21 35 28 42 21 7 -7 5 -16 -8 -28 -11 -11 -18 -34 -18 -55 -1
-30 -9 -44 -43 -77 -40 -38 -46 -40 -89 -35 -36 4 -48 1 -55 -12 -5 -9 -13
-16 -18 -16 -16 0 -56 46 -52 59 2 7 -5 21 -17 32 -22 21 -20 39 3 39 8 0 16
9 19 21 3 12 10 18 16 14 6 -3 11 1 11 9 0 9 6 16 13 16 7 0 18 9 24 19 7 11
20 18 29 17 18 -3 61 33 56 47 -1 5 7 11 18 14 11 3 20 9 20 14 0 12 38 49 50
49 5 0 10 7 10 15 0 20 -12 19 -32 -4 -10 -12 -24 -18 -37 -14 -16 4 -20 -1
-23 -29 -2 -20 -8 -32 -15 -31 -7 2 -13 -4 -13 -12 0 -8 -4 -16 -10 -16 -5 -1
-14 -3 -20 -4 -5 -1 -17 -3 -25 -4 -9 -1 -12 -7 -8 -18 5 -12 2 -15 -10 -10
-11 4 -18 -1 -22 -14 -4 -10 -13 -19 -21 -19 -8 0 -14 -7 -14 -15 0 -8 -7 -15
-15 -15 -8 0 -15 -7 -15 -15 0 -8 -7 -15 -15 -15 -17 0 -20 -26 -5 -35 7 -4 8
-11 1 -18 -5 -7 -10 -37 -12 -67 -3 -48 0 -59 22 -82 18 -20 29 -24 36 -17 8
8 11 6 10 -7 -1 -11 4 -18 11 -17 6 2 12 -1 12 -6 0 -12 47 -61 60 -61 5 0 10
-7 10 -15 0 -8 9 -15 19 -15 11 0 26 -8 33 -18 21 -27 45 -22 70 15 15 22 29
32 41 29 9 -2 15 0 11 5 -3 5 0 9 5 9 6 0 11 -7 11 -16 0 -9 5 -12 13 -8 6 4
4 -2 -7 -14 -10 -12 -23 -19 -28 -16 -11 7 -6 -19 5 -27 5 -3 1 -13 -7 -22
-23 -22 -20 -38 14 -74 17 -18 30 -37 30 -42 0 -9 28 -16 52 -12 4 0 12 -8 18
-19 6 -11 17 -17 24 -14 8 3 19 -3 26 -15 6 -12 17 -21 25 -21 8 0 14 -3 14
-7 -4 -23 4 -33 36 -44 19 -7 35 -17 35 -21 0 -4 8 -8 17 -8 24 0 83 -23 83
-32 0 -4 7 -8 15 -8 8 0 15 -6 15 -13 0 -8 13 -13 34 -14 19 -1 42 -9 53 -20
21 -21 85 -23 91 -4 6 18 62 13 62 -5 0 -11 5 -14 16 -10 9 3 36 6 60 6 32 0
44 4 44 15 0 11 11 15 39 15 22 0 43 5 46 10 4 7 13 6 27 -1 15 -8 19 -8 14 0
-4 6 4 15 18 21 15 5 25 15 24 22 -4 16 40 12 62 -6 18 -15 108 -15 118 -1 11
16 32 16 32 1 0 -20 150 -27 158 -8 4 11 6 11 13 0 7 -10 9 -10 9 2 0 12 2 13
9 1 5 -7 14 -10 20 -7 6 4 9 12 6 17 -6 9 15 13 43 10 16 -3 81 37 108 66 13
14 35 23 64 26 24 2 46 9 48 15 2 7 10 12 18 12 7 0 19 9 26 20 7 11 21 20 31
20 10 0 37 20 61 45 25 25 47 45 51 45 10 0 55 49 55 58 0 4 10 14 22 22 12 8
29 22 39 32 9 9 20 14 24 10 3 -3 8 4 12 16 3 12 9 22 13 22 5 0 11 14 15 31
4 17 12 32 19 35 15 6 17 34 3 34 -6 0 2 10 16 23 30 25 35 52 12 61 -8 3 -15
15 -15 27 0 15 -5 19 -15 15 -8 -3 -14 -2 -13 2 1 4 -3 17 -10 29 l-13 23 -29
-30 c-33 -34 -40 -36 -40 -16 0 8 -9 18 -21 21 -11 4 -18 10 -14 13 10 10 38
11 56 1 12 -6 20 -5 25 3 4 7 3 8 -4 4 -7 -4 -12 -2 -12 3 0 6 4 11 10 11 5 0
6 7 3 17 -5 12 -3 14 8 8 8 -5 3 3 -10 18 -13 14 -20 31 -16 37 6 9 2 9 -14 1
-17 -10 -25 -9 -37 4 -12 11 -12 15 -2 16 7 0 2 5 -11 10 -15 6 -21 14 -17 25
3 8 2 13 -3 9 -12 -7 -43 24 -36 36 4 5 -1 6 -9 3 -10 -4 -16 -1 -16 8 0 7 9
14 20 15 18 2 25 -8 21 -30 0 -4 2 -6 6 -6 21 3 33 -2 33 -16 0 -8 4 -15 9
-15 4 0 23 -13 42 -29 18 -16 37 -28 40 -25 4 2 10 0 14 -6 4 -6 11 -8 16 -4
5 3 8 2 7 -3 -2 -5 18 -29 43 -54 39 -39 51 -46 81 -44 39 3 78 20 78 35 0 6
7 10 15 10 15 0 95 72 95 85 0 3 13 17 29 30 16 14 31 38 34 55 4 18 13 30 22
30 9 0 13 5 10 10 -3 6 -1 10 5 10 16 0 59 52 60 71 0 9 20 37 45 63 31 34 45
57 45 76 0 16 7 35 15 43 8 8 15 32 17 52 1 21 8 39 15 42 7 3 13 16 13 28 0
13 8 31 17 40 12 13 17 36 17 86 1 38 -3 69 -8 69 -4 0 -6 7 -3 14 4 11 1 13
-11 9 -9 -4 -20 -11 -24 -17 -6 -8 -11 -6 -17 3 -8 12 -13 12 -24 3 -20 -17
-34 3 -35 46 -1 25 3 32 19 32 10 0 19 -7 19 -15 0 -10 10 -15 34 -15 19 0 36
-5 38 -10 5 -16 78 53 78 73 0 15 -3 16 -21 7 -25 -14 -31 -9 -34 25 -3 20 1
25 19 25 12 0 26 -4 32 -10 16 -16 35 5 38 40 2 22 9 36 22 41 10 4 15 8 9 9
-5 0 -2 7 8 15 13 9 20 30 22 70 3 31 9 63 16 71 13 16 19 173 7 180 -5 3 -4
13 2 23 15 29 10 299 -6 316 -8 7 -15 25 -16 39 -2 24 -15 32 -43 26 -5 -1 -4
4 3 11 19 20 15 49 -8 50 -34 2 -39 4 -51 16 -9 9 -15 8 -26 -3 -19 -18 -59
-18 -67 1 -7 20 -26 19 -26 -1 0 -8 4 -12 10 -9 6 3 7 -1 4 -9 -3 -9 -10 -16
-16 -16 -5 0 -6 5 -3 10 4 6 -5 10 -21 10 -27 0 -74 36 -74 58 0 8 19 12 60
12 33 0 60 3 61 8 0 4 2 15 4 25 2 9 -3 17 -10 17 -21 0 -28 19 -15 35 15 18
76 11 97 -11 8 -8 17 -14 19 -14 3 0 5 39 4 88 -2 151 -1 162 15 162 21 0 19
16 -5 40 -24 24 -70 27 -70 5z m-157 -171 c9 -9 -4 -35 -14 -28 -5 3 -9 1 -9
-4 0 -5 -11 -21 -25 -37 -19 -19 -36 -27 -61 -27 -24 0 -38 -6 -45 -20 -10
-19 -12 -19 -27 -5 -14 15 -13 18 13 39 16 13 38 24 47 24 18 1 58 39 58 56 0
9 53 11 63 2z m160 -14 c7 -26 -13 -49 -41 -47 -28 2 -30 14 -6 43 23 29 40
30 47 4z m-95 -79 c3 -27 0 -32 -15 -29 -19 3 -28 30 -19 54 10 26 31 10 34
-25z m-218 -128 c-1 -35 -62 -44 -68 -10 -3 14 4 17 32 17 20 0 36 -3 36 -7z
m193 -67 c7 -18 -1 -26 -25 -26 -11 0 -18 7 -18 20 0 23 35 28 43 6z m-327
-141 c-3 -10 -12 -15 -21 -11 -8 3 -23 -4 -34 -15 -24 -26 -94 -24 -99 4 -3
14 4 17 37 17 28 0 43 5 50 18 6 9 11 14 11 10 0 -4 10 -3 23 1 26 11 42 -1
33 -24z m504 -57 c0 -13 -5 -18 -14 -15 -8 3 -17 -1 -20 -9 -8 -22 -25 -17
-21 7 5 23 35 50 47 43 5 -3 8 -14 8 -26z m-686 7 c3 -9 -1 -18 -10 -22 -19
-7 -28 2 -21 22 8 19 23 19 31 0z m-94 -66 c0 -15 -39 -49 -55 -49 -21 0 -19
16 8 43 21 22 47 25 47 6z m174 3 c3 -5 -1 -9 -9 -9 -8 0 -12 4 -9 9 3 4 7 8
9 8 2 0 6 -4 9 -8z m535 -36 c-14 -15 -22 0 -13 26 7 22 7 22 14 3 4 -11 4
-24 -1 -29z m-29 -27 c0 -13 -17 -19 -35 -13 -11 5 -13 9 -5 14 15 9 40 9 40
-1z m-77 -135 c-7 -18 -37 -18 -52 0 -10 11 -8 15 6 18 29 6 52 -3 46 -18z
m-793 -49 c0 -2 -7 -8 -15 -15 -12 -10 -15 -10 -15 2 0 8 7 15 15 15 8 0 15
-1 15 -2z m-132 -55 c1 -25 -3 -29 -22 -28 -15 1 -23 8 -21 18 1 8 8 14 14 12
6 -1 14 5 17 13 9 22 11 19 12 -15z m-74 -43 c16 -12 15 -13 -11 -11 -35 2
-35 2 -28 14 8 13 18 13 39 -3z m-51 -34 c-8 -20 -53 -17 -53 4 0 13 3 14 11
6 16 -16 39 -5 32 15 -4 14 -3 14 5 3 6 -8 8 -20 5 -28z m1037 -3 c0 -5 -7
-10 -15 -10 -8 0 -15 5 -15 10 0 6 7 10 15 10 8 0 15 -4 15 -10z m127 -63 c3
-6 1 -7 -5 -3 -7 4 -12 3 -12 -2 0 -13 -39 -22 -46 -11 -3 6 -3 16 -1 23 6 15
53 10 64 -7z m-1104 -31 c4 -10 1 -13 -8 -9 -8 3 -12 9 -9 14 7 12 11 11 17
-5z m-279 -31 c4 -11 -2 -15 -21 -15 -21 0 -24 2 -13 15 7 8 16 15 20 15 4 0
10 -7 14 -15z m151 -24 c17 -1 17 -3 5 -11 -17 -11 -14 -12 76 -15 27 -1 56
-5 64 -10 9 -6 11 -4 5 6 -8 12 -6 12 8 0 9 -7 15 -16 12 -20 -5 -10 -136 -8
-152 2 -6 4 -14 1 -16 -5 -4 -8 -8 -4 -12 10 -6 17 -15 22 -41 22 -19 0 -34 4
-34 9 0 11 27 19 50 15 8 -1 24 -3 35 -3z m225 -69 c0 -14 -7 -19 -25 -18 -32
2 -34 19 -3 28 13 3 24 6 26 7 1 1 2 -7 2 -17z m865 -40 c31 -27 25 -42 -16
-42 -19 0 -29 5 -29 15 0 10 -10 15 -29 15 -27 0 -47 20 -34 34 14 13 84 -1
108 -22z m-1365 -26 c0 -8 7 -17 16 -20 10 -4 14 -14 11 -25 -5 -21 16 -36 56
-40 7 0 13 -10 14 -21 1 -13 -3 -18 -10 -14 -7 4 4 -9 23 -27 19 -19 38 -33
42 -32 3 2 5 -8 4 -22 -2 -14 3 -33 11 -42 8 -10 12 -13 9 -6 -4 7 2 12 16 11
42 0 69 -8 63 -19 -5 -6 -13 -6 -23 3 -10 7 -14 8 -10 4 4 -5 3 -15 -3 -22 -7
-9 -4 -16 11 -27 11 -8 20 -18 19 -23 -6 -32 3 -44 31 -44 20 0 33 7 41 22 11
20 13 21 18 5 4 -10 5 -36 3 -58 -3 -30 -7 -37 -17 -29 -6 5 -14 7 -18 4 -3
-3 -8 3 -11 14 -7 21 -36 39 -36 22 0 -5 -7 -7 -15 -3 -16 6 -44 -22 -45 -44
0 -6 9 -15 20 -18 11 -4 18 -10 15 -15 -3 -5 4 -7 15 -5 11 2 18 0 15 -6 -4
-5 0 -9 7 -10 9 0 10 -2 1 -5 -8 -4 -9 -13 -4 -28 8 -19 6 -22 -20 -21 -16 0
-29 3 -29 6 0 4 -13 9 -29 12 -20 4 -31 14 -35 32 -4 14 -11 23 -16 20 -6 -4
-10 11 -10 35 0 25 4 39 10 35 20 -12 50 -14 56 -3 4 7 2 8 -5 4 -6 -4 -14 0
-17 9 -5 12 -9 13 -14 5 -4 -7 -13 -9 -19 -6 -17 11 -3 26 25 26 18 0 23 -4
18 -12 -5 -8 0 -7 11 2 17 13 18 13 10 0 -6 -11 -5 -12 4 -4 6 6 13 20 16 32
3 17 -1 22 -18 22 -18 0 -19 2 -7 10 11 7 12 10 2 10 -9 0 -11 7 -7 20 5 15 2
20 -14 21 -12 1 -27 2 -33 3 -7 1 -13 13 -12 29 1 20 -4 27 -17 27 -11 0 -19
7 -19 15 0 8 -8 19 -18 24 -13 7 -18 20 -17 40 1 21 -2 28 -12 24 -7 -3 -13 2
-13 11 0 9 -7 16 -15 16 -9 0 -19 9 -23 21 -5 11 -12 19 -17 17 -9 -3 -17 31
-9 44 8 13 24 9 24 -6z m220 -1 c0 -8 5 -15 10 -15 6 0 13 0 18 0 4 0 7 5 7
12 0 6 6 13 13 16 6 2 12 -3 12 -11 0 -9 9 -19 20 -22 31 -10 15 -23 -29 -23
-25 -1 -41 4 -45 14 -3 8 -12 14 -19 14 -8 0 -14 7 -14 15 0 8 6 15 14 15 7 0
13 -7 13 -15z m-349 -55 c1 -5 2 -16 3 -22 1 -7 -2 -19 -8 -27 -9 -11 -12 -9
-17 10 -3 13 -4 30 -1 37 5 14 21 16 23 2z m564 -61 c9 -13 4 -18 -23 -22 -12
-2 -28 -12 -35 -22 -11 -13 -16 -15 -22 -6 -4 7 -2 18 4 24 6 6 11 7 11 2 0
-5 7 1 16 13 16 24 39 29 49 11z m803 -25 c24 -5 30 -29 8 -37 -29 -11 -99 19
-76 33 14 8 39 10 68 4z m-1398 -19 c0 -8 -6 -15 -12 -15 -9 0 -9 -3 1 -9 8
-6 12 -19 9 -35 -3 -15 -1 -29 4 -32 4 -3 5 -11 1 -17 -4 -7 -6 -22 -5 -34 2
-12 -1 -30 -7 -40 -7 -12 -10 -14 -11 -4 0 7 -8 21 -17 30 -10 9 -18 25 -18
36 0 11 -6 19 -12 18 -16 -4 -17 43 -1 53 6 4 8 3 5 -2 -9 -16 8 -35 25 -29
18 7 32 46 16 42 -11 -2 -20 32 -12 45 9 14 34 9 34 -7z m372 -31 c-7 -12 -11
-13 -17 -4 -4 7 -2 16 6 21 18 11 23 4 11 -17z m-310 -29 c0 -5 -5 -11 -11
-13 -6 -2 -11 4 -11 13 0 9 5 15 11 13 6 -2 11 -8 11 -13z m1478 -21 c0 -14
-3 -14 -15 -4 -8 7 -15 14 -15 16 0 2 7 4 15 4 8 0 15 -7 15 -16z m-837 -54
c20 -24 22 -34 5 -24 -9 6 -9 3 0 -9 8 -9 10 -22 6 -28 -4 -7 -3 -9 3 -6 6 4
18 0 29 -7 15 -11 16 -18 7 -37 l-12 -24 -7 23 c-3 12 -13 22 -20 22 -8 0 -14
6 -14 14 0 8 -8 13 -17 12 -13 -1 -18 7 -19 29 -1 57 11 68 39 35z m-953 -227
c0 -13 -5 -23 -11 -23 -5 0 -7 6 -4 13 4 6 0 4 -8 -5 -8 -10 -17 -15 -20 -11
-4 3 -7 1 -7 -5 0 -7 5 -12 11 -12 5 0 7 -4 4 -10 -3 -5 3 -10 15 -10 12 0 18
-4 15 -10 -3 -5 -17 -10 -31 -10 -14 0 -22 4 -19 10 3 6 4 10 1 10 -2 0 -11 2
-19 5 -8 4 -14 0 -14 -9 0 -8 4 -13 9 -10 4 3 8 0 8 -5 0 -6 -7 -11 -15 -11
-20 0 -77 -58 -69 -71 4 -7 -3 -6 -17 2 -13 7 -26 11 -28 10 -3 -1 -6 5 -7 14
-1 8 3 15 10 15 23 0 36 22 25 43 -7 12 -7 17 -1 13 5 -3 13 1 16 10 3 8 11
12 17 8 8 -4 9 -3 5 5 -4 6 0 14 8 17 9 3 13 10 10 15 -13 22 15 6 30 -16 20
-31 33 -32 31 -2 -1 15 -8 21 -21 19 -15 -2 -16 -1 -4 7 9 6 18 6 26 0 8 -7
15 -6 20 2 4 8 3 9 -4 5 -7 -4 -12 -3 -12 3 0 5 -13 8 -30 6 -16 -2 -33 2 -36
8 -4 7 -4 9 0 5 4 -3 20 -3 36 2 15 4 33 4 39 -1 8 -6 8 -5 1 3 -5 7 -10 18
-10 26 0 10 8 6 25 -9 13 -13 25 -34 25 -46z m450 25 c0 5 11 10 25 10 13 0
22 -4 19 -9 -3 -5 -1 -9 3 -9 5 0 9 -9 9 -20 0 -13 -7 -20 -19 -20 -10 0 -16
4 -13 8 2 4 1 14 -4 22 -7 11 -13 5 -25 -24 -20 -48 -41 -36 -31 19 6 30 10
34 22 25 8 -7 14 -8 14 -2z m-231 -12 c9 -10 8 -15 -3 -19 -10 -4 -14 0 -13
14 2 23 1 23 16 5z m747 -33 c-10 -10 -19 5 -10 18 6 11 8 11 12 0 2 -7 1 -15
-2 -18z m-665 -8 c17 11 9 -15 -10 -34 -13 -13 -21 -16 -24 -8 -3 7 -4 2 -4
-10 1 -12 5 -19 9 -17 4 3 8 0 8 -5 0 -6 -4 -11 -10 -11 -5 0 -10 -8 -10 -19
0 -10 -9 -30 -20 -44 -13 -16 -19 -35 -16 -51 3 -15 1 -26 -3 -26 -3 0 -4 -27
-1 -60 3 -33 3 -60 0 -60 -4 0 -4 -275 0 -290 2 -6 -1 -94 -4 -125 -1 -11 0
-24 2 -29 8 -15 7 -86 0 -86 -5 0 -11 0 -15 0 -11 -1 -12 29 -2 36 5 3 6 11 2
17 -11 16 -11 87 -1 87 4 0 8 7 8 15 0 8 -4 15 -8 15 -4 0 -8 9 -8 19 0 11 5
17 10 14 5 -4 6 -1 0 8 -12 18 -12 89 -1 89 5 0 4 7 -3 15 -10 12 -10 15 1 15
11 0 11 2 -1 10 -13 9 -13 11 0 20 8 5 10 10 4 10 -6 0 -11 6 -11 13 0 6 -3
23 -7 36 -5 13 -4 21 1 18 4 -3 8 49 7 116 0 73 4 128 10 136 9 12 8 13 -4 6
-13 -8 -13 -7 -1 8 10 13 10 17 1 17 -9 0 -9 4 -2 13 5 6 9 26 8 42 0 17 5 36
12 44 7 7 10 16 7 19 -3 4 -10 0 -14 -7 -6 -9 -8 -3 -7 18 0 17 3 32 6 32 3 1
15 3 28 4 12 1 26 5 29 9 4 4 11 0 16 -9 4 -8 12 -13 18 -10z m49 17 c0 -5 -7
-9 -15 -9 -8 0 -12 4 -9 9 3 4 9 8 15 8 5 0 9 -4 9 -8z m678 -42 c5 0 13 -11
16 -25 4 -15 11 -23 18 -19 6 4 9 1 6 -6 -5 -16 -38 -23 -38 -9 0 6 -4 8 -9 4
-5 -3 -11 9 -13 27 -2 18 -9 34 -15 34 -26 3 -28 5 -13 14 11 7 18 5 26 -5 6
-8 16 -15 22 -15z m162 9 c0 -4 9 -11 20 -14 11 -3 20 -13 20 -21 0 -8 5 -12
10 -9 16 10 24 -24 11 -51 -8 -19 -8 -23 0 -18 7 4 10 1 7 -7 -3 -8 -16 -14
-31 -14 -14 -1 -24 2 -21 6 2 4 0 10 -6 14 -6 4 -8 11 -5 16 3 5 -1 6 -9 3 -9
-3 -16 -1 -16 5 0 6 7 11 15 11 17 0 18 2 9 24 -3 9 -13 16 -21 16 -8 0 -11 5
-8 10 3 6 -1 13 -9 16 -24 9 -19 20 9 20 14 0 25 -3 25 -7z m-1255 -69 c3 -5
1 -10 -5 -10 -6 0 -9 -4 -5 -9 8 -14 -9 -21 -25 -11 -12 7 -12 10 3 16 9 3 14
10 11 15 -3 5 -1 9 5 9 5 0 13 -4 16 -10z m540 -68 c-1 -57 -1 -57 -30 -57
-28 0 -30 3 -30 35 -1 34 28 79 50 80 6 0 10 -26 10 -58z m532 42 c0 -7 -6
-10 -14 -7 -7 3 -13 8 -13 12 0 4 6 8 13 8 8 0 14 -6 14 -13z m503 5 c0 -5 -4
-8 -9 -5 -5 4 -12 0 -14 -6 -3 -8 -6 -6 -6 5 -1 9 6 17 14 17 8 0 15 -5 15
-11z m-1633 -50 c-11 -16 -25 -25 -30 -22 -6 3 -2 12 9 20 10 8 18 18 17 22
-1 4 4 8 12 8 9 0 7 -8 -8 -28z m93 -14 c0 -33 -4 -45 -15 -45 -21 0 -19 -27
2 -39 10 -5 15 -12 12 -16 -4 -3 -19 5 -33 18 -30 28 -36 63 -9 53 10 -4 14
-4 10 0 -4 4 -2 13 4 20 6 8 9 20 6 28 -5 12 1 19 21 25 1 1 2 -19 2 -44z
m1060 29 c0 -8 -5 -12 -10 -9 -6 4 -8 11 -5 16 9 14 15 11 15 -7z m288 -40
c-2 -1 -16 0 -33 3 -25 5 -27 7 -10 13 17 6 52 -7 43 -16z m142 14 c0 -5 6 -6
13 -2 6 4 8 3 4 -1 -16 -18 -64 -14 -53 4 7 11 36 10 36 -1z m-1623 -31 c0 -8
-6 -14 -13 -14 -7 0 -10 6 -7 14 3 7 8 13 12 13 4 0 8 -6 8 -13z m1564 -17
c12 0 19 -7 19 -20 0 -11 4 -20 10 -20 5 0 7 -6 4 -14 -6 -16 -36 -15 -42 2
-2 7 -12 12 -22 12 -24 0 -33 47 -11 60 11 6 17 5 19 -6 2 -8 12 -14 23 -14z
m-1691 14 c0 -8 -19 -13 -24 -6 -3 5 1 9 9 9 8 0 15 -2 15 -3z m1800 0 c0 -8
-19 -13 -24 -6 -3 5 1 9 9 9 8 0 15 -2 15 -3z m-975 -60 c-2 -10 -4 -23 -4
-27 -1 -5 -5 -5 -11 -2 -11 7 -14 58 -3 69 10 10 22 -17 18 -40z m-725 11 c0
-20 -5 -25 -25 -25 -25 0 -77 -44 -66 -56 3 -4 -2 -4 -11 -1 -9 3 -18 1 -20
-5 -2 -6 -9 -3 -17 6 -12 14 -11 16 9 16 16 0 20 4 16 16 -4 12 -1 14 13 9 11
-3 23 0 27 6 4 8 3 9 -4 5 -18 -11 -14 10 5 25 11 10 14 10 9 2 -4 -7 -2 -13
3 -13 6 0 11 5 11 11 0 8 5 7 16 -1 8 -8 14 -9 13 -4 -3 19 1 34 11 34 6 0 10
-11 10 -25z m122 -51 c-7 -12 -11 -13 -17 -4 -4 7 -2 16 6 21 18 11 23 4 11
-17z m228 7 c0 -5 -6 -11 -13 -14 -8 -3 -14 1 -14 9 0 8 6 14 14 14 7 0 13 -4
13 -9z m406 -68 c1 -21 -5 -43 -13 -51 -9 -9 -11 -17 -5 -21 17 -10 18 -35 2
-36 -11 0 -15 -11 -14 -38 0 -33 -2 -36 -20 -31 -35 10 -39 21 -18 42 13 13
19 28 15 41 -3 12 1 29 8 38 8 10 9 14 2 10 -18 -11 -13 54 6 80 21 28 35 14
37 -34z m635 40 c10 -11 10 -14 2 -9 -8 4 -13 2 -13 -5 0 -10 -3 -10 -11 -2
-6 6 -8 16 -5 22 9 14 11 14 27 -6z m-1294 -15 c-1 -13 -9 -30 -19 -40 -13
-13 -16 -30 -13 -82 4 -66 -7 -95 -21 -54 -13 42 -5 122 15 138 11 9 17 24 15
38 -3 14 1 22 10 22 9 0 14 -9 13 -22z m1006 7 c4 -8 1 -15 -5 -15 -7 0 -6 -5
2 -15 7 -8 23 -15 36 -15 17 0 24 -6 24 -20 0 -20 5 -20 -127 -8 -11 1 -35 73
-27 81 2 2 23 4 48 6 31 1 45 -2 49 -14z m197 -5 c11 -11 20 -24 20 -30 0 -11
-49 -14 -51 -2 -10 56 -2 65 31 32z m-770 -56 c0 -8 -4 -13 -9 -9 -5 3 -12 -4
-16 -15 -9 -27 -25 -25 -25 3 0 29 3 32 30 34 12 1 20 -4 20 -13z m-184 -51
c-3 -8 -2 -11 3 -8 5 3 12 1 16 -5 3 -6 -4 -10 -17 -10 -16 0 -24 6 -24 18 0
10 6 19 14 19 7 0 10 -7 8 -14z m-380 -2 c-4 -5 0 -12 6 -14 7 -3 2 -6 -11 -6
-20 -1 -21 1 -11 14 14 16 25 21 16 6z m500 -17 c-4 -9 -9 -15 -11 -12 -3 3
-3 13 1 22 4 9 9 15 11 12 3 -3 3 -13 -1 -22z m964 11 c5 3 11 1 14 -4 3 -5
-1 -11 -9 -15 -8 -3 -15 -1 -15 5 0 6 -4 7 -10 4 -6 -4 -7 1 -3 11 4 11 8 13
11 6 2 -7 8 -10 12 -7z m-540 -15 c24 -24 23 -45 -5 -78 -17 -21 -20 -21 -26
-6 -4 14 -4 87 0 102 2 6 13 0 31 -18z m-1410 -31 c0 -42 -118 -126 -136 -97
-3 4 -10 6 -15 3 -15 -10 -10 0 11 25 11 13 20 21 20 18 0 -3 23 17 51 45 40
39 53 47 60 36 5 -8 9 -21 9 -30z m400 5 c0 -10 -5 -12 -12 -8 -10 6 -10 4 0
-8 9 -11 10 -18 2 -23 -5 -3 -10 -2 -10 3 0 5 -7 9 -15 9 -10 0 -12 -4 -5 -12
7 -9 6 -16 -3 -23 -24 -20 -19 36 6 61 24 25 37 25 37 1z m-100 6 c0 -5 -4
-10 -10 -10 -5 0 -10 5 -10 10 0 6 5 10 10 10 6 0 10 -4 10 -10z m1447 4 c-8
-9 16 -33 27 -27 5 3 7 0 4 -7 -6 -19 -58 -22 -58 -4 0 8 -4 14 -9 14 -5 0
-11 7 -15 15 -4 11 2 15 26 15 17 0 29 -3 25 -6z m-1941 -39 c10 -40 -1 -55
-40 -55 -29 0 -34 3 -29 18 7 21 43 62 55 62 4 0 10 -11 14 -25z m2105 15 c25
7 30 6 25 -5 -3 -9 0 -12 8 -9 8 3 16 1 20 -4 3 -5 -21 -8 -53 -8 -33 1 -57 4
-54 9 2 4 -2 7 -9 8 -7 0 -4 4 7 8 11 5 21 5 23 1 2 -5 17 -4 33 0z m-1044
-43 c0 -9 -10 -12 -29 -9 -15 2 -28 8 -28 13 0 5 13 9 28 9 17 0 29 -5 29 -13z
m347 -31 c-3 -8 4 -16 17 -19 23 -6 23 -6 -5 -32 -20 -19 -32 -23 -39 -16 -8
8 -7 11 2 11 10 0 11 3 2 13 -8 10 -7 17 2 27 10 10 9 11 -1 5 -11 -6 -12 -3
-2 14 12 23 33 20 24 -3z m-756 -26 c1 -40 -17 -68 -19 -31 -4 55 -1 71 10 71
5 0 9 -18 9 -40z m1472 30 c10 -7 11 -10 3 -11 -7 -1 -19 -2 -25 -3 -19 -3
-29 4 -23 15 8 12 26 11 45 -1z m-1859 -19 c3 -1 6 -8 6 -16 0 -8 -4 -12 -9
-9 -9 6 -31 -44 -24 -55 3 -4 -1 -8 -9 -8 -8 0 -15 4 -15 9 0 4 -7 8 -15 8 -8
0 -15 9 -15 20 0 11 4 20 9 20 5 0 12 9 16 20 4 14 13 18 28 16 12 -3 25 -5
28 -5z m514 -31 c0 -13 -6 -25 -12 -27 -9 -3 -13 6 -13 27 0 21 4 30 12 28 7
-3 13 -15 13 -28z m755 -12 c0 -4 -8 -13 -17 -20 -17 -13 -25 -29 -26 -55 -1
-26 -10 -2 -13 34 -2 21 2 40 8 44 15 9 48 7 48 -3z m467 -19 c2 -19 1 -21 -7
-9 -5 8 -10 11 -10 7 0 -5 -6 -5 -12 0 -7 4 -22 6 -34 5 -12 -2 -21 3 -21 11
0 10 12 14 40 13 34 -2 41 -6 44 -27z m-1542 -38 c3 -5 2 -12 -3 -15 -5 -3 -9
1 -9 9 0 17 3 19 12 6z m755 -6 c10 -12 10 -15 -4 -15 -9 0 -16 7 -16 15 0 8
2 15 4 15 2 0 9 -7 16 -15z m-400 -11 c0 -6 7 -14 15 -18 8 -3 15 -13 15 -21
0 -10 -5 -13 -12 -9 -7 5 -8 3 -2 -7 15 -25 12 -35 -16 -51 l-28 -16 8 29 c5
17 5 31 -1 34 -16 10 -11 72 6 72 8 0 15 -6 15 -13z m120 -9 c0 -14 -4 -25 -9
-25 -10 0 -21 36 -13 44 12 13 22 5 22 -19z m126 0 c1 -8 -4 -15 -12 -15 -16
0 -16 2 -8 25 7 17 17 13 20 -10z m254 -12 c3 -2 -3 -10 -12 -17 -10 -8 -18
-28 -19 -52 -2 -56 -8 -74 -25 -74 -8 0 -14 -7 -14 -15 0 -8 -4 -15 -9 -15 -5
0 -12 -13 -16 -30 -4 -16 -10 -30 -15 -30 -5 0 -15 -3 -23 -6 -17 -6 -31 22
-15 32 7 4 8 3 4 -4 -4 -7 -1 -12 9 -12 9 0 13 5 10 10 -4 6 -4 28 0 50 5 30
13 41 33 49 15 5 21 10 15 10 -7 1 -13 8 -13 17 0 8 4 13 9 9 5 -3 13 0 17 6
4 7 3 9 -4 5 -6 -3 -13 -2 -17 4 -3 5 1 10 9 10 12 0 16 10 16 36 0 34 1 36
27 29 16 -4 30 -9 33 -12z m218 -36 c3 -39 -13 -55 -43 -43 -13 5 -14 9 -3 28
7 13 14 28 14 33 1 6 2 14 3 18 0 5 7 7 14 5 6 -3 13 -21 15 -41z m358 16 c23
-24 27 -84 7 -90 -7 -3 -10 6 -9 22 2 16 -4 31 -15 39 -11 7 -17 15 -14 18 3
2 -1 5 -9 5 -8 0 -12 -7 -9 -16 3 -11 1 -11 -7 2 -15 23 -5 49 17 45 10 -2 27
-13 39 -25z m-1486 -11 c0 -13 -12 -22 -22 -16 -10 6 -1 24 13 24 5 0 9 -4 9
-8z m974 -70 c2 -25 -3 -47 -11 -54 -9 -7 -13 -7 -13 1 0 6 -9 11 -20 11 -22
0 -23 1 -14 24 3 9 10 13 15 10 5 -3 9 0 9 6 0 6 6 8 13 4 9 -5 9 -4 0 6 -13
14 -6 43 9 38 6 -2 11 -23 12 -46z m-250 -86 c3 -28 -7 -34 -21 -13 -11 17
-10 31 1 39 14 9 17 5 20 -26z m-569 -28 c-2 -24 -4 -47 -4 -51 -3 -23 -19 8
-23 42 -2 22 0 37 4 35 3 -2 9 0 13 6 11 18 14 11 10 -32z m849 -15 c11 -27
-23 -11 -37 17 l-15 30 23 -18 c13 -9 26 -23 29 -29z m-478 -29 c-4 -9 -9 -15
-11 -12 -3 3 -3 13 1 22 4 9 9 15 11 12 3 -3 3 -13 -1 -22z m129 6 c3 -5 -1
-10 -10 -10 -9 0 -13 5 -10 10 3 6 8 10 10 10 2 0 7 -4 10 -10z m130 -10 c8
-13 -5 -13 -25 0 -13 8 -13 10 2 10 9 0 20 -4 23 -10z m-5 -20 c13 -9 13 -10
0 -10 -13 0 -13 -1 0 -10 11 -7 11 -10 2 -10 -7 0 -10 -4 -7 -10 3 -5 0 -10
-7 -10 -8 0 -13 12 -13 30 0 33 2 35 25 20z m250 -5 c0 -8 -4 -15 -10 -15 -5
0 -10 7 -10 15 0 8 5 15 10 15 6 0 10 -7 10 -15z"/>
<path d="M1415 1921 c-3 -5 -2 -12 3 -15 5 -3 9 1 9 9 0 17 -3 19 -12 6z"/>
<path d="M2410 1523 c0 -4 5 -15 10 -23 8 -13 10 -13 10 2 0 9 -4 20 -10 23
-5 3 -10 3 -10 -2z"/>
<path d="M2777 3504 c-8 -8 1 -24 14 -24 5 0 9 7 9 15 0 15 -12 20 -23 9z"/>
<path d="M2740 3458 c-5 -13 -9 -19 -9 -14 -1 5 -13 -4 -27 -19 -18 -20 -22
-31 -14 -39 8 -8 12 -5 16 12 4 12 10 22 15 22 12 0 49 38 49 50 0 19 -21 10
-30 -12z"/>
<path d="M2650 3370 c0 -16 -7 -20 -30 -20 -18 0 -30 -5 -30 -13 0 -23 43 -17
67 9 27 30 27 30 8 38 -10 4 -15 -1 -15 -14z"/>
<path d="M2555 3311 c-7 -12 12 -24 25 -16 11 7 4 25 -10 25 -5 0 -11 -4 -15
-9z"/>
<path d="M2527 3284 c-8 -8 1 -24 14 -24 5 0 9 7 9 15 0 15 -12 20 -23 9z"/>
<path d="M2465 3252 c-13 -13 -3 -22 26 -22 20 0 29 4 27 13 -5 12 -43 19 -53
9z"/>
<path d="M2400 3198 c0 -19 5 -28 16 -28 8 0 12 5 9 11 -4 6 3 13 14 16 29 8
21 27 -12 28 -23 2 -27 -2 -27 -27z"/>
<path d="M2374 3156 c-8 -22 -2 -27 16 -16 12 7 12 12 3 21 -10 10 -14 9 -19
-5z"/>
<path d="M2336 3115 c-3 -9 -18 -15 -36 -15 -17 0 -29 -4 -25 -9 3 -6 -4 -15
-15 -21 -13 -7 -20 -21 -20 -40 0 -41 28 -29 32 13 2 26 7 31 24 29 23 -3 79
40 67 51 -10 11 -20 8 -27 -8z"/>
<path d="M2460 3085 c0 -10 -10 -15 -30 -15 -36 0 -38 -9 -5 -40 21 -20 25
-21 31 -6 3 9 12 16 20 16 9 0 14 11 14 30 0 20 -5 30 -15 30 -8 0 -15 -7 -15
-15z"/>
<path d="M2020 2835 c0 -10 10 -14 34 -13 24 1 33 5 29 15 -7 18 -63 17 -63
-2z"/>
<path d="M1990 2806 c0 -9 7 -16 16 -16 9 0 14 5 12 12 -6 18 -28 21 -28 4z"/>
<path d="M1960 2776 c0 -8 4 -17 9 -20 10 -7 23 19 14 28 -11 11 -23 6 -23 -8z"/>
<path d="M1932 2751 c-10 -6 -10 -10 1 -20 12 -9 16 -8 20 3 7 19 -4 27 -21
17z"/>
<path d="M1870 2722 c-6 -2 -7 -8 -4 -14 3 -5 -4 -12 -15 -15 -22 -6 -24 -24
-3 -31 7 -2 12 3 12 12 0 16 6 18 47 19 14 0 21 6 20 17 -1 16 -27 22 -57 12z"/>
<path d="M2125 2680 c-3 -5 -1 -10 4 -10 6 0 11 5 11 10 0 6 -2 10 -4 10 -3 0
-8 -4 -11 -10z"/>
<path d="M1802 2648 c6 -18 28 -21 28 -4 0 9 -7 16 -16 16 -9 0 -14 -5 -12
-12z"/>
<path d="M1770 2615 c0 -8 7 -15 15 -15 8 0 15 7 15 15 0 8 -7 15 -15 15 -8 0
-15 -7 -15 -15z"/>
<path d="M1746 2593 c-11 -11 -6 -23 9 -23 8 0 15 4 15 9 0 13 -16 22 -24 14z"/>
<path d="M1710 2555 c0 -8 7 -15 15 -15 9 0 12 6 9 15 -4 8 -10 15 -15 15 -5
0 -9 -7 -9 -15z"/>
<path d="M1679 2537 c-7 -18 -2 -58 8 -61 7 -3 14 -2 14 2 6 35 4 52 -7 56 -8
3 -14 4 -15 3z"/>
<path d="M1642 2458 c6 -18 25 -20 31 -3 5 10 0 15 -14 15 -12 0 -19 -5 -17
-12z"/>
<path d="M1582 2428 c5 -15 57 -18 61 -3 1 6 -13 11 -32 13 -24 3 -32 0 -29
-10z"/>
<path d="M1552 2398 c6 -18 28 -21 28 -4 0 9 -7 16 -16 16 -9 0 -14 -5 -12
-12z"/>
<path d="M1490 2360 c-6 -11 -15 -18 -20 -15 -5 3 -10 -9 -12 -27 -3 -28 -7
-33 -30 -33 -37 -1 -44 -11 -19 -24 17 -10 24 -8 38 8 9 11 20 18 25 15 8 -5
10 -1 12 38 1 17 9 24 30 28 38 6 47 30 12 30 -15 0 -30 -8 -36 -20z"/>
<path d="M1370 2250 c-13 -9 -13 -11 0 -20 10 -6 16 -6 18 0 7 20 -3 30 -18
20z"/>
<path d="M3153 2225 c0 -8 4 -12 9 -9 5 3 6 10 3 15 -9 13 -12 11 -12 -6z"/>
<path d="M1330 2205 c0 -11 -12 -15 -45 -15 -33 0 -45 -4 -45 -15 0 -8 -7 -15
-15 -15 -8 0 -15 -7 -15 -15 0 -8 -8 -16 -17 -16 -33 -2 -38 -4 -41 -14 -7
-25 40 -14 66 14 22 24 37 31 70 33 26 1 42 6 42 14 0 6 7 14 15 18 8 3 15 10
15 16 0 5 -7 10 -15 10 -8 0 -15 -7 -15 -15z"/>
<path d="M1115 2080 c-3 -11 -10 -18 -15 -15 -14 8 -23 -16 -11 -28 7 -7 12
-5 17 7 4 10 16 21 26 25 17 6 18 9 5 20 -13 10 -16 8 -22 -9z"/>
<path d="M1033 2005 c-13 -12 -20 -25 -16 -28 11 -12 22 -7 28 13 3 11 11 19
17 17 6 -1 13 4 15 11 7 19 -20 12 -44 -13z"/>
<path d="M985 1960 c-3 -5 -3 -10 2 -11 4 0 -2 -4 -15 -10 -13 -5 -20 -13 -17
-19 5 -8 -28 -15 -37 -8 -5 3 -58 -49 -58 -56 0 -3 7 -6 15 -6 8 0 15 7 15 15
0 9 9 15 24 15 25 0 110 72 99 84 -9 9 -21 7 -28 -4z"/>
<path d="M1114 1935 c0 -30 20 -28 24 3 2 14 -2 22 -10 22 -8 0 -14 -11 -14
-25z"/>
<path d="M1086 1901 c-4 -7 -5 -15 -2 -18 9 -9 19 4 14 18 -4 11 -6 11 -12 0z"/>
<path d="M3874 1863 c0 -27 6 -48 11 -48 6 0 11 21 13 48 2 36 0 47 -11 47
-11 0 -14 -12 -13 -47z"/>
<path d="M1011 1854 c-13 -14 -21 -35 -21 -58 0 -23 -5 -39 -15 -42 -8 -4 -15
-17 -15 -30 0 -14 -13 -37 -29 -53 l-29 -29 27 -26 c33 -32 51 -20 51 35 0 24
5 39 15 43 10 3 15 19 15 44 0 30 6 43 30 62 35 29 42 76 11 76 -11 0 -29 -10
-40 -22z"/>
<path d="M835 1840 c-8 -13 -1 -24 14 -19 6 3 7 10 2 18 -6 10 -10 10 -16 1z"/>
<path d="M800 1805 c0 -8 7 -15 15 -15 8 0 15 4 15 9 0 5 -7 11 -15 15 -9 3
-15 0 -15 -9z"/>
<path d="M767 1771 c-3 -12 -15 -21 -31 -23 -36 -4 -38 -22 -3 -25 16 -1 27 3
27 11 0 7 9 17 21 22 18 9 19 11 6 22 -12 10 -15 9 -20 -7z"/>
<path d="M677 1714 c-8 -8 1 -24 14 -24 5 0 9 7 9 15 0 15 -12 20 -23 9z"/>
<path d="M612 1678 c6 -18 58 -23 58 -6 0 8 -13 15 -31 16 -21 2 -30 -2 -27
-10z"/>
<path d="M3810 1632 c0 -50 -3 -62 -19 -67 -15 -4 -18 -13 -15 -49 3 -37 1
-44 -16 -49 -13 -3 -18 -11 -15 -26 2 -13 -2 -24 -10 -27 -8 -3 -17 -14 -20
-25 -4 -10 -12 -18 -18 -16 -7 1 -13 -12 -13 -33 -2 -57 -3 -60 -20 -60 -11 0
-14 -8 -12 -27 5 -39 26 -40 30 -1 2 20 8 32 16 30 12 -2 16 18 14 65 -1 13 7
27 19 33 11 6 17 15 14 21 -4 5 4 9 15 9 16 0 20 5 16 15 -7 20 3 45 19 45 7
0 12 10 12 23 1 65 4 77 19 77 13 0 15 10 12 57 -4 81 -28 85 -28 5z"/>
<path d="M580 1640 c0 -12 -5 -17 -14 -14 -8 3 -16 -3 -19 -15 -3 -15 0 -19
14 -18 11 1 19 7 19 14 0 8 7 16 15 19 8 4 15 10 15 14 0 4 -7 10 -15 14 -10
4 -15 -1 -15 -14z"/>
<path d="M793 1634 c-13 -15 -23 -39 -23 -56 0 -22 -12 -42 -47 -79 -27 -27
-49 -58 -49 -69 -1 -11 1 -20 3 -20 3 0 43 39 90 86 55 57 80 89 73 94 -7 4
-15 21 -18 38 l-7 31 -22 -25z"/>
<path d="M517 1586 c-3 -8 1 -17 8 -20 20 -7 28 9 11 23 -10 9 -15 8 -19 -3z"/>
<path d="M486 1562 c-3 -6 1 -15 8 -21 8 -7 17 -8 20 -3 3 6 -1 15 -8 21 -8 7
-17 8 -20 3z"/>
<path d="M450 1521 c0 -18 18 -21 30 -6 10 13 9 15 -9 15 -11 0 -21 -4 -21 -9z"/>
<path d="M550 1505 c0 -30 3 -30 30 -8 27 23 25 33 -5 33 -20 0 -25 -5 -25
-25z"/>
<path d="M2365 1350 c-3 -6 1 -7 9 -4 18 7 21 14 7 14 -6 0 -13 -4 -16 -10z"/>
<path d="M107 1199 c-3 -12 -10 -18 -16 -15 -16 10 -22 -11 -7 -23 11 -10 16
-8 20 7 4 11 16 22 27 25 12 3 18 10 14 16 -11 18 -32 12 -38 -10z"/>
<path d="M3620 1191 c0 -21 5 -31 16 -31 11 0 14 8 12 27 -4 39 -28 42 -28 4z"/>
<path d="M17 1148 c-7 -4 -8 -8 -2 -8 5 0 4 -5 -3 -12 -7 -7 -12 -19 -11 -27
0 -11 3 -10 8 4 4 11 14 20 22 21 44 3 48 5 43 18 -6 15 -36 17 -57 4z"/>
<path d="M3596 1153 c-11 -11 -6 -23 9 -23 8 0 15 4 15 9 0 13 -16 22 -24 14z"/>
<path d="M3323 935 c0 -8 4 -12 9 -9 5 3 6 10 3 15 -9 13 -12 11 -12 -6z"/>
<path d="M3430 926 c0 -8 -8 -19 -17 -25 -14 -8 -15 -12 -6 -22 10 -10 14 -8
21 10 4 12 12 22 17 22 15 -1 12 22 -2 27 -7 2 -13 -3 -13 -12z"/>
<path d="M3151 746 c-5 -13 -17 -26 -25 -29 -20 -8 -21 -33 -2 -40 14 -5 34
10 68 52 17 20 17 21 -8 21 -14 0 -23 4 -19 10 3 6 4 10 0 10 -3 0 -10 -11
-14 -24z"/>
<path d="M3073 660 c-8 -12 -19 -17 -30 -14 -17 5 -17 5 -1 -6 10 -6 21 -10
24 -10 4 1 10 -4 14 -10 5 -8 9 -7 13 4 4 9 3 15 -1 13 -4 -1 -8 3 -9 8 -2 6
1 10 6 10 5 0 13 4 18 9 4 5 3 6 -4 3 -6 -4 -13 -3 -15 3 -2 6 -9 1 -15 -10z"/>
<path d="M3029 534 c-1 -2 -2 -10 -3 -16 -1 -7 -11 -13 -23 -12 -12 0 -20 -3
-17 -8 7 -11 -29 -10 -41 1 -6 4 -18 -1 -29 -12 -17 -18 -17 -20 -2 -14 14 6
17 2 14 -16 -2 -12 -6 -21 -10 -19 -5 1 -8 4 -8 7 1 14 -26 31 -42 27 -12 -3
-15 -9 -10 -21 17 -33 9 -46 -26 -43 -17 2 -32 0 -32 -5 1 -18 17 -32 35 -28
11 2 23 4 28 4 4 1 6 7 5 14 -2 6 6 13 17 13 11 1 26 2 33 3 6 1 12 8 12 16 0
9 9 15 25 15 24 0 65 31 65 49 0 6 15 11 33 13 17 2 31 8 29 13 -2 10 -51 27
-53 19z m-74 -54 c3 -5 2 -10 -4 -10 -5 0 -13 5 -16 10 -3 6 -2 10 4 10 5 0
13 -4 16 -10z"/>
<path d="M2755 410 c-3 -5 -3 -14 0 -20 3 -5 1 -11 -4 -11 -6 -1 -17 -2 -23
-3 -7 -1 -17 3 -21 9 -5 6 -7 5 -5 -4 2 -8 12 -15 23 -17 10 -1 21 -7 24 -13
8 -13 44 -8 49 7 2 7 -1 12 -8 12 -6 0 -9 4 -6 9 3 5 -1 12 -10 15 -8 3 -12
10 -9 16 3 5 4 10 1 10 -3 0 -8 -4 -11 -10z"/>
<path d="M2683 343 c-10 -8 -12 -11 -4 -7 9 5 12 3 7 -5 -4 -6 -11 -9 -16 -6
-5 3 -12 0 -15 -6 -4 -5 -13 -8 -20 -5 -15 6 -40 -19 -27 -28 18 -11 94 -3 99
10 3 8 11 14 19 14 20 0 11 43 -9 46 -9 1 -24 -5 -34 -13z"/>
</g>
</svg>
