<?xml version="1.0" standalone="no"?>
<!DOCTYPE svg PUBLIC "-//W3C//DTD SVG 20010904//EN"
 "http://www.w3.org/TR/2001/REC-SVG-20010904/DTD/svg10.dtd">
<svg version="1.0" xmlns="http://www.w3.org/2000/svg"
 width="384.000000pt" height="384.000000pt" viewBox="0 0 384.000000 384.000000"
 preserveAspectRatio="xMidYMid meet">
<metadata>
Created by potrace 1.14, written by Peter Selinger 2001-2017
</metadata>
<g transform="translate(0.000000,384.000000) scale(0.100000,-0.100000)"
fill="#000000" stroke="none">
<path d="M3109 3683 c-1 -4 -1 -12 0 -16 1 -5 -3 -6 -8 -3 -5 3 -21 -10 -36
-29 -15 -19 -35 -35 -44 -37 -13 -3 -13 -6 5 -24 12 -12 28 -24 35 -26 12 -4
11 -8 -1 -23 -14 -17 -13 -18 2 -12 12 4 15 2 11 -8 -3 -8 -10 -12 -17 -8 -6
3 -3 -3 7 -14 24 -27 22 -30 -17 -28 -26 1 -33 -2 -28 -13 3 -10 1 -13 -6 -8
-7 4 -14 -3 -18 -18 -8 -32 4 -68 19 -59 7 4 6 -1 -2 -11 -11 -13 -16 -14 -23
-4 -6 9 -7 5 -3 -9 6 -23 -5 -29 -42 -24 -7 1 -13 -4 -13 -12 0 -7 -7 -14 -15
-14 -8 0 -15 7 -15 14 0 8 -4 12 -9 8 -6 -3 -15 4 -22 16 -10 20 -12 21 -21 5
-5 -9 -14 -13 -20 -10 -7 4 -8 2 -4 -4 7 -11 -28 -36 -52 -37 -7 0 -16 -6 -20
-12 -5 -7 -20 -14 -35 -15 -15 -1 -27 -8 -27 -15 0 -7 -7 -13 -15 -13 -8 0
-14 -4 -13 -9 2 -5 -10 -20 -26 -34 -20 -17 -30 -36 -32 -59 -1 -18 -3 -36 -3
-40 -1 -5 -8 -8 -16 -8 -8 0 -12 -6 -9 -14 3 -8 -3 -16 -15 -19 -12 -3 -21 -2
-21 3 0 4 -11 5 -24 3 -18 -4 -27 -14 -31 -34 -6 -26 -15 -33 -36 -31 -4 1 -6
-5 -5 -13 0 -8 -3 -13 -7 -12 -12 3 -42 -54 -39 -73 2 -11 -8 -15 -40 -14 -36
1 -43 5 -49 27 -4 14 -4 29 -1 32 4 3 -1 3 -11 -1 -9 -3 -15 -10 -12 -14 8
-14 -6 -40 -22 -40 -13 0 -13 3 -3 15 7 9 10 18 6 22 -3 3 -6 1 -6 -4 0 -15
-21 -11 -52 9 -14 9 -30 13 -38 8 -15 -9 -5 -30 16 -30 8 0 12 -4 9 -10 -3 -5
1 -11 9 -11 9 -1 22 -2 29 -3 18 -2 20 -41 3 -55 -12 -10 -18 -9 -34 7 -23 23
-38 17 -39 -15 -2 -55 -3 -59 -12 -45 -6 11 -9 9 -14 -7 -2 -11 0 -22 6 -24 5
-1 11 -11 13 -20 2 -13 -5 -17 -32 -17 -45 0 -49 2 -48 21 1 10 -5 16 -15 14
-9 -1 -15 -8 -13 -15 1 -6 -7 -14 -18 -17 -11 -3 -18 -9 -15 -13 3 -5 -4 -11
-15 -15 -11 -4 -18 -10 -15 -14 4 -8 -39 -51 -51 -51 -3 0 -3 8 0 17 6 16 6
16 -12 0 -10 -9 -22 -14 -27 -10 -4 5 -5 2 -1 -5 7 -13 -17 -45 -28 -37 -3 3
-4 2 -1 -1 2 -4 -5 -18 -16 -33 -12 -15 -16 -27 -10 -29 6 -2 9 -8 6 -12 -6
-10 35 -4 44 6 3 4 -2 4 -11 1 -10 -4 -18 -2 -18 2 0 13 28 22 35 11 4 -6 11
-10 16 -10 6 0 3 7 -5 16 -14 14 -14 34 0 34 3 0 2 -5 -2 -11 -5 -8 1 -10 19
-5 25 6 46 -8 32 -22 -3 -3 -10 0 -15 7 -6 11 -9 8 -12 -10 -2 -17 -8 -23 -22
-21 -10 2 -15 -1 -11 -7 3 -7 0 -8 -9 -5 -10 4 -16 1 -16 -9 0 -19 -35 -28
-51 -13 -6 6 -10 7 -7 1 9 -16 -7 -48 -25 -51 -10 -1 -15 2 -12 6 3 5 0 12 -7
16 -7 4 -10 4 -6 -1 4 -4 3 -14 -3 -22 -9 -10 -15 -10 -25 -2 -11 9 -15 7 -20
-5 -4 -10 -13 -15 -22 -11 -12 4 -12 3 -3 -9 10 -12 8 -16 -8 -21 -13 -4 -18
-13 -16 -25 3 -18 -5 -25 -27 -21 -4 0 -5 -5 -2 -13 3 -8 -3 -16 -15 -19 -12
-3 -19 -1 -15 4 3 5 2 9 -3 9 -10 0 -31 -47 -33 -75 -4 -38 0 -50 25 -77 19
-21 21 -27 10 -32 -8 -3 -14 -2 -14 2 3 20 -2 32 -11 27 -6 -4 -9 -1 -8 6 2 7
-10 13 -30 15 -18 1 -30 -1 -27 -6 6 -10 -20 -32 -28 -23 -4 3 -7 1 -7 -6 0
-8 -5 -7 -16 3 -8 9 -21 16 -27 17 -7 0 -20 2 -30 4 -9 2 -15 -1 -11 -6 3 -5
9 -7 14 -4 5 3 11 1 14 -4 9 -14 -8 -21 -24 -11 -9 6 -22 -1 -41 -23 -25 -28
-29 -30 -46 -16 -16 13 -17 12 -5 -2 10 -13 10 -18 -1 -28 -8 -6 -16 -9 -18
-6 -4 4 -8 -14 -11 -52 -1 -7 -7 -13 -15 -13 -7 0 -13 -11 -13 -25 0 -13 -7
-28 -16 -33 -14 -8 -14 -10 0 -24 8 -9 12 -19 8 -23 -4 -5 1 -5 11 -2 15 6 16
3 7 -13 -13 -24 -13 -33 0 -25 6 3 7 -1 3 -10 -5 -13 -7 -14 -14 -3 -5 7 -9 9
-9 4 0 -15 -23 12 -26 29 -1 8 2 13 7 10 5 -4 6 1 3 9 -10 26 -33 19 -29 -9 2
-26 -24 -51 -41 -37 -5 4 -4 0 2 -8 6 -8 14 -24 18 -34 5 -15 4 -17 -8 -7 -11
9 -15 8 -21 -6 -5 -10 -7 -21 -7 -25 2 -8 -14 -12 -32 -9 -5 1 -6 -5 -3 -14 7
-17 3 -19 -22 -6 -13 7 -18 6 -18 -4 0 -8 4 -12 9 -9 5 3 7 -7 5 -23 -3 -22
-9 -29 -30 -31 -15 -2 -27 -7 -27 -12 0 -5 7 -7 15 -4 21 8 19 -3 -3 -15 -14
-8 -18 -5 -19 12 -1 12 3 25 10 29 9 6 8 8 -2 8 -11 0 -11 3 -1 15 7 8 16 13
20 10 5 -3 7 10 6 29 -4 42 7 61 28 53 9 -4 16 -2 16 3 0 6 -6 10 -12 10 -9 1
-8 5 3 13 29 23 31 46 4 53 -14 3 -31 1 -39 -5 -7 -6 -15 -9 -17 -6 -4 4 -9
-30 -12 -72 0 -7 -4 -13 -9 -13 -5 0 -7 -4 -4 -9 4 -5 2 -11 -3 -13 -5 -1 -11
-12 -13 -23 -1 -11 -16 -32 -31 -48 l-28 -28 23 -19 c13 -11 26 -19 29 -20 4
0 9 -9 12 -19 3 -15 1 -18 -11 -14 -11 5 -13 3 -7 -8 7 -12 6 -12 -7 -1 -14
11 -16 10 -13 -5 1 -10 9 -17 16 -15 8 1 4 -6 -8 -17 -13 -11 -23 -24 -23 -29
0 -5 -9 -12 -20 -15 -13 -3 -21 1 -25 14 -7 20 -37 27 -33 8 2 -6 -3 -14 -10
-16 -8 -3 -10 1 -5 14 4 12 0 11 -14 -7 -12 -13 -20 -35 -18 -48 2 -16 -2 -22
-11 -18 -8 3 -14 1 -14 -4 0 -6 7 -10 16 -10 11 0 14 -5 10 -17 -4 -10 5 -4
18 12 14 17 25 33 26 37 0 4 11 7 24 6 14 -1 23 -5 20 -9 -2 -4 2 -10 8 -12 9
-4 10 -6 1 -6 -6 -1 -15 3 -18 9 -10 16 -22 12 -40 -16 -10 -16 -12 -23 -4
-18 7 4 25 9 39 10 24 3 24 2 6 -11 -10 -8 -24 -11 -30 -8 -6 4 -2 -4 9 -17
17 -19 17 -22 3 -17 -12 4 -16 1 -13 -13 2 -11 -1 -23 -7 -26 -7 -5 -8 -2 -4
7 4 8 -1 3 -12 -10 -14 -18 -21 -20 -24 -10 -3 8 -5 2 -5 -13 0 -17 4 -25 11
-22 6 3 -5 -10 -26 -29 -20 -20 -34 -38 -32 -41 2 -3 1 -4 -3 -1 -3 3 -13 -1
-22 -8 -14 -11 -14 -10 -2 6 8 10 9 17 3 17 -6 0 -16 -9 -22 -20 -8 -15 -8
-20 1 -20 18 0 5 -10 -20 -15 -11 -2 -25 -6 -30 -9 -19 -12 -40 6 -38 32 2 30
26 64 39 56 4 -3 11 2 14 11 5 13 9 13 22 3 13 -11 14 -10 5 7 -7 15 -6 24 8
37 9 9 20 14 23 11 3 -4 6 1 6 10 0 9 7 20 15 24 9 6 11 13 5 23 -7 11 -11 11
-23 1 -10 -8 -17 -9 -22 -1 -3 5 -1 10 6 10 7 0 4 7 -7 16 -10 8 -12 12 -4 8
13 -7 13 -6 1 10 -14 16 -16 16 -27 2 -6 -9 -16 -16 -23 -16 -6 0 -11 -6 -11
-13 0 -8 -9 -13 -23 -11 -12 1 -26 3 -30 3 -5 1 -7 9 -5 19 5 26 -33 43 -52
21 -11 -12 -31 -16 -74 -16 -32 -1 -53 2 -47 6 6 4 3 11 -8 18 -16 10 -20 9
-24 -9 -5 -16 -12 -19 -32 -16 -20 4 -25 2 -23 -11 2 -9 12 -17 23 -17 11 -1
24 -2 29 -3 6 -1 -3 -14 -19 -31 -16 -16 -23 -30 -17 -30 7 0 12 -5 12 -11 0
-5 -6 -7 -12 -3 -7 4 -9 3 -5 -1 14 -16 37 -14 37 3 0 8 3 12 7 9 3 -4 13 -1
21 6 13 10 15 9 9 -5 -3 -10 -2 -20 4 -24 6 -3 8 -13 5 -21 -3 -8 -1 -11 4 -8
5 3 8 19 6 34 -2 17 1 28 8 27 34 -6 56 -19 56 -32 0 -10 -5 -12 -12 -8 -9 5
-9 3 1 -9 12 -15 10 -18 -10 -26 -13 -5 -28 -6 -33 -3 -5 3 -6 0 -2 -7 4 -6
13 -8 19 -5 7 4 1 -5 -12 -19 -14 -15 -27 -24 -30 -20 -8 11 -81 10 -81 0 0
-5 -6 -5 -12 -2 -7 4 -2 -4 12 -16 21 -19 22 -21 5 -16 -19 7 -19 6 -2 -7 20
-15 22 -32 5 -42 -8 -5 -9 -2 -5 10 4 10 3 15 -3 11 -6 -3 -10 1 -10 10 0 8
-9 23 -19 32 -11 9 -18 20 -15 25 3 5 0 7 -8 6 -7 -2 -13 4 -13 12 0 8 -7 22
-16 30 -8 8 -19 23 -22 34 -6 15 -10 16 -22 6 -11 -9 -12 -16 -5 -26 9 -10 7
-11 -9 -7 -15 4 -21 1 -21 -11 0 -9 8 -16 19 -16 17 0 18 -4 9 -38 -6 -20 -13
-44 -16 -52 -10 -28 -10 -40 -2 -45 5 -3 7 3 5 14 -3 18 -1 19 16 8 19 -12 19
-12 -2 -29 -12 -10 -16 -18 -11 -18 6 0 14 5 17 10 3 6 14 10 23 10 13 0 12
-4 -7 -19 -26 -20 -51 -18 -51 4 0 7 -6 15 -12 17 -19 7 -39 -2 -32 -15 3 -7
-9 3 -26 22 l-33 34 5 -63 c3 -47 9 -66 24 -77 18 -13 18 -15 2 -27 -15 -11
-15 -13 3 -24 11 -7 24 -10 29 -7 6 3 7 -1 4 -9 -3 -9 -1 -16 6 -16 6 0 8 -5
4 -12 -5 -8 -2 -8 10 1 15 12 17 12 14 0 -2 -8 -7 -17 -11 -20 -5 -3 -1 -9 8
-12 9 -4 13 -3 10 3 -3 6 1 10 9 10 17 0 17 -20 1 -33 -5 -5 0 -6 12 -2 15 4
25 0 32 -12 5 -10 13 -18 18 -18 4 0 7 -4 5 -8 -4 -12 25 -37 34 -29 5 4 2 -2
-6 -12 -14 -18 -13 -19 4 -13 13 5 27 1 43 -14 14 -14 23 -18 23 -10 0 10 3
11 14 2 8 -7 12 -21 9 -31 -3 -11 0 -20 6 -20 6 0 11 -5 11 -11 0 -5 -4 -7
-10 -4 -5 3 -10 1 -10 -4 0 -6 10 -9 23 -7 12 3 26 5 30 5 5 1 5 7 1 14 -4 7
-3 9 2 4 5 -5 9 -14 9 -20 1 -7 7 -11 15 -9 11 3 11 1 0 -14 -9 -10 -16 -12
-18 -5 -2 6 -8 11 -14 11 -6 0 -5 -6 2 -15 10 -12 16 -13 26 -4 16 13 45 -5
43 -25 -4 -33 1 -39 17 -20 14 18 15 18 8 -6 l-7 -25 21 25 c12 14 21 19 22
13 0 -7 -4 -13 -10 -13 -5 0 -10 -5 -10 -11 0 -6 8 -8 19 -4 11 3 23 0 27 -6
4 -8 3 -9 -4 -5 -7 4 -12 2 -12 -3 0 -10 29 -16 53 -12 5 1 6 -3 2 -9 -3 -6
-11 -7 -17 -4 -7 4 -8 2 -4 -4 9 -15 12 -15 30 4 15 14 16 13 16 -6 0 -16 4
-20 15 -16 8 3 15 1 15 -4 0 -6 -8 -10 -17 -11 -13 0 -14 -2 -4 -6 8 -3 21 3
29 13 14 18 14 18 9 -3 -5 -24 7 -41 17 -24 9 14 29 8 62 -18 16 -13 21 -21
12 -18 -19 7 -33 -19 -16 -29 7 -5 8 -3 3 5 -5 9 1 12 21 9 16 -2 28 -8 27
-15 -1 -6 5 -17 14 -25 10 -7 14 -8 10 -1 -5 8 2 10 20 8 16 -2 35 2 43 8 8 6
4 -1 -10 -17 -24 -28 -24 -28 -2 -17 18 10 22 9 22 -3 0 -7 7 -17 16 -20 13
-5 14 -3 6 7 -8 10 -6 13 9 13 11 0 18 -5 15 -12 -3 -7 6 -20 20 -28 13 -9 24
-12 24 -6 0 5 -5 10 -11 10 -5 0 -7 4 -4 10 3 5 0 8 -7 7 -7 -2 -10 -2 -5 0 4
3 4 10 0 16 -3 7 5 3 18 -9 14 -12 36 -20 52 -19 15 1 27 -2 27 -7 0 -5 5 -6
12 -2 7 4 8 3 4 -4 -6 -11 6 -16 27 -13 10 1 9 -17 -2 -23 -5 -3 -14 1 -22 10
-7 8 -22 20 -33 26 -12 6 -18 7 -14 3 4 -5 3 -14 -3 -22 -8 -8 -8 -13 -1 -13
6 0 12 5 14 12 3 8 12 5 28 -10 16 -15 27 -19 34 -12 5 5 17 10 25 10 14 0 14
-2 1 -11 -13 -9 -13 -10 1 -6 9 3 23 0 30 -6 11 -10 11 -9 1 4 -10 14 -10 18
2 22 9 4 18 2 21 -4 4 -5 10 -7 15 -4 5 3 11 1 14 -4 7 -11 -13 -9 -34 4 -13
7 -13 6 -2 -7 10 -13 38 -17 50 -8 1 2 5 3 10 4 4 1 13 5 21 10 10 6 12 5 7
-2 -4 -7 -1 -12 9 -12 10 0 14 -5 10 -12 -4 -7 0 -6 7 3 19 23 66 16 94 -14
13 -14 21 -27 18 -29 -2 -3 3 -5 11 -5 19 0 19 2 -1 21 -14 15 -14 16 0 16 9
0 16 -4 16 -10 0 -5 9 -14 20 -20 16 -9 18 -8 14 5 -3 8 -10 12 -15 9 -5 -3
-9 -1 -9 5 0 5 9 9 19 8 11 0 17 -6 13 -12 -3 -5 1 -5 9 1 11 9 17 9 26 -1 6
-7 10 -15 7 -17 -2 -3 3 -5 11 -5 13 0 13 3 -2 19 -10 12 -12 18 -4 18 17 0
41 -26 33 -35 -4 -5 -1 -5 6 -1 10 6 10 11 2 21 -7 8 -7 15 -1 19 11 7 20 -5
26 -35 3 -12 7 -24 11 -28 4 -3 4 2 1 12 -4 10 -1 17 6 17 7 0 8 3 2 8 -16 11
-15 29 0 29 8 0 12 -4 9 -9 -3 -4 -1 -8 5 -8 5 0 12 4 16 9 3 6 14 9 25 8 10
-1 16 -5 13 -11 -4 -5 1 -7 10 -3 10 3 17 3 17 -1 0 -4 9 -13 20 -20 21 -12
21 -12 4 13 -15 23 -15 25 0 19 9 -3 16 -10 16 -14 0 -4 7 -10 15 -14 12 -4
13 -2 6 13 -7 13 -6 18 4 18 8 0 12 -4 9 -9 -3 -4 -1 -8 5 -8 5 0 13 5 16 10
5 7 11 8 19 1 6 -5 17 -6 25 -2 12 8 33 7 79 -3 12 -3 22 -1 22 5 0 5 5 9 11
9 8 0 8 -5 -1 -15 -11 -13 -9 -15 8 -12 12 2 25 7 29 12 5 4 1 5 -7 1 -12 -6
-12 -5 1 6 9 7 14 20 12 28 -4 13 -3 13 6 0 5 -8 8 -17 6 -20 -2 -3 6 -12 18
-19 18 -11 20 -11 10 0 -20 20 -15 36 10 35 12 -1 28 3 36 8 11 8 13 8 8 -1
-5 -8 0 -11 13 -10 11 1 20 5 20 10 0 5 6 4 14 -2 10 -8 16 -9 21 -1 3 6 11 7
17 4 6 -4 17 1 24 11 8 10 17 15 21 11 4 -4 1 -12 -7 -17 -11 -8 -9 -9 9 -4
16 5 21 4 17 -4 -4 -6 -2 -11 3 -11 14 0 14 13 1 25 -10 11 67 11 107 2 13 -3
22 -3 20 1 -1 4 3 7 8 7 6 0 9 -3 8 -6 -1 -4 8 -4 20 -1 18 5 19 7 4 10 -9 2
-15 7 -12 12 8 12 -21 6 -38 -9 -13 -11 -16 -10 -14 6 1 15 8 19 34 18 18 -1
40 -8 50 -16 14 -11 14 -8 -2 10 l-20 24 22 -11 c12 -7 24 -17 27 -24 3 -7 3
-2 0 12 -5 20 -4 22 6 13 15 -14 40 -6 40 13 0 8 5 14 11 14 5 0 8 -4 5 -9 -4
-5 4 -7 16 -3 l22 5 -23 9 c-38 14 -13 28 40 23 31 -3 49 -1 49 6 0 5 -4 8 -8
5 -5 -3 -9 1 -9 9 0 12 13 22 37 30 3 1 17 7 32 15 24 11 26 16 15 29 -10 14
-10 14 3 5 8 -6 25 -10 38 -8 14 3 21 0 17 -6 -3 -5 -1 -10 5 -10 7 0 9 8 4
22 -6 19 -4 21 7 11 17 -14 31 -7 47 24 9 15 20 20 42 19 26 -2 71 27 63 40
-9 13 0 22 17 19 11 -2 20 0 20 6 0 5 6 9 14 9 8 0 18 4 21 10 3 6 -1 7 -12 4
-11 -3 -9 0 5 8 12 8 19 18 15 22 -4 4 -1 6 7 4 9 -2 14 4 14 14 -1 10 1 17 5
16 21 -2 28 5 25 28 -2 18 2 24 11 20 23 -8 27 25 5 44 -19 16 -19 18 -3 31
14 12 16 12 8 0 -6 -10 -4 -12 4 -7 8 5 11 2 9 -9 -2 -11 4 -19 15 -20 9 -2
17 3 17 10 0 7 7 16 16 19 9 3 12 11 8 18 -5 8 -2 9 10 5 10 -4 15 -3 11 3 -3
6 -1 10 4 10 6 0 11 8 12 18 0 15 2 14 9 -3 8 -17 9 -15 7 10 -1 17 -7 29 -14
28 -6 -1 -17 4 -24 13 -10 13 -9 16 10 21 15 4 19 8 11 13 -8 5 -7 9 5 13 9 4
13 3 10 -2 -3 -5 -1 -13 5 -16 8 -5 7 -11 -1 -21 -13 -16 -13 -16 22 -18 18
-1 25 2 22 11 -3 7 2 13 12 13 9 0 14 4 10 9 -3 5 4 12 15 16 11 3 19 11 17
17 -1 6 4 13 12 16 8 3 11 0 7 -7 -5 -7 -1 -9 9 -4 9 3 13 9 8 12 -4 3 -9 12
-11 20 -2 9 5 12 23 9 14 -3 25 -1 25 3 0 5 -4 9 -8 9 -4 0 -8 9 -9 20 -1 11
2 18 8 15 5 -4 9 -1 9 5 0 6 5 8 10 5 6 -3 10 -2 10 4 0 5 -5 11 -12 13 -7 3
-5 7 6 11 9 4 15 3 11 -2 -3 -5 -1 -13 5 -16 6 -4 10 -3 9 2 -4 24 2 53 11 48
6 -3 10 -1 10 4 0 6 -5 11 -11 11 -5 0 -7 5 -4 10 4 6 12 7 18 3 17 -10 47
-11 41 -1 -4 5 -13 7 -21 4 -11 -5 -13 -2 -9 10 3 8 6 18 6 20 0 2 7 4 15 4
18 0 38 37 31 56 -5 12 5 18 26 15 4 0 6 13 4 29 -2 17 1 30 6 30 5 0 6 5 2
11 -4 7 -1 10 7 7 8 -3 13 -12 11 -19 -2 -8 0 -11 4 -6 11 10 12 47 2 47 -4 0
-8 5 -8 11 0 5 6 7 13 3 9 -5 9 -4 0 6 -6 7 -9 19 -6 26 3 8 -5 18 -18 23 -16
6 -18 10 -8 10 9 1 22 -6 29 -14 13 -15 35 -11 25 6 -6 9 5 12 35 10 10 0 11
1 3 5 -7 3 -13 12 -13 20 0 9 4 13 8 10 5 -3 9 1 9 9 0 8 -3 15 -7 15 -4 0
-18 9 -31 21 -35 30 -33 98 3 84 21 -8 31 -45 12 -45 -8 0 -14 -5 -14 -11 0
-5 4 -8 9 -5 5 3 11 -3 14 -14 10 -37 32 -23 34 22 1 24 8 45 16 50 10 5 14
20 11 43 -2 26 0 34 9 29 9 -5 9 -4 0 6 -13 14 -6 43 8 34 5 -3 9 2 9 10 0 26
1 30 13 45 9 12 9 13 0 7 -8 -4 -13 -1 -13 9 0 10 5 14 13 9 10 -6 10 -4 0 7
-17 18 -16 29 2 29 11 0 15 12 15 48 0 38 -4 49 -16 49 -10 0 -14 -7 -11 -19
3 -10 1 -20 -3 -23 -5 -3 -7 -14 -5 -25 2 -11 -1 -20 -7 -20 -5 0 -8 6 -5 14
3 7 0 19 -6 25 -8 8 -8 11 1 11 7 0 12 5 12 11 0 5 -5 7 -10 4 -6 -3 -10 -2
-10 4 0 5 6 12 13 14 8 4 9 8 1 14 -7 5 -8 16 -3 28 4 11 8 16 8 12 1 -4 7 -2
15 5 8 7 12 16 9 21 -2 4 1 7 6 7 6 0 11 9 11 21 0 11 -4 18 -9 15 -5 -3 -11
3 -14 14 -5 21 7 28 18 10 3 -5 11 -10 17 -10 5 0 0 9 -13 21 -13 11 -18 18
-11 14 12 -6 15 8 14 68 -1 23 3 27 16 23 13 -5 12 -2 -3 9 -17 13 -18 17 -5
25 8 5 18 6 24 3 5 -3 6 -1 2 5 -4 6 -14 8 -24 5 -15 -6 -16 -5 -2 12 9 11 10
16 3 11 -9 -5 -13 0 -13 14 0 13 4 18 11 15 6 -4 5 2 -2 13 -11 18 -10 24 6
42 14 15 15 21 5 18 -18 -4 -23 70 -6 91 8 11 8 13 -1 7 -7 -4 -13 -2 -13 3 0
6 6 11 13 11 9 0 8 3 -2 9 -10 7 -11 13 -1 31 8 15 8 20 1 16 -15 -10 -14 17
2 33 10 11 10 13 0 7 -9 -5 -13 3 -13 29 0 20 -4 34 -9 30 -9 -5 -24 11 -27
30 -5 28 -10 41 -18 46 -15 11 2 39 19 33 8 -3 12 -10 9 -15 -3 -5 -11 -7 -17
-3 -7 3 -3 -2 7 -10 11 -9 14 -16 8 -16 -10 0 -10 -5 0 -22 7 -13 11 -27 9
-33 -1 -5 1 -6 6 -2 4 5 9 13 9 18 1 5 2 11 4 14 2 5 2 60 1 115 -1 20 -6 30
-16 30 -13 0 -14 4 -4 21 8 16 8 20 0 14 -8 -4 -10 2 -7 22 5 23 2 29 -14 30
-11 1 -18 -2 -15 -8 4 -5 0 -9 -7 -9 -10 0 -10 -2 -1 -8 9 -6 3 -14 -20 -27
-17 -10 -29 -15 -25 -11 4 5 3 18 -2 31 -5 14 -5 26 3 34 8 8 4 17 -13 36 -13
14 -21 28 -17 31 3 4 2 14 -2 23 -6 10 -4 23 4 34 11 16 13 16 19 2 3 -9 2
-13 -3 -10 -5 3 -12 1 -16 -5 -3 -5 -1 -10 5 -10 6 0 10 -8 9 -17 -3 -31 1
-43 12 -43 8 0 8 4 0 14 -7 9 -8 17 -3 20 13 8 20 -12 17 -51 -1 -18 2 -33 7
-33 5 0 3 -10 -3 -22 -16 -30 -6 -21 24 24 19 27 22 39 14 48 -9 10 -9 14 1
17 10 4 8 8 -5 18 -13 10 -20 10 -25 2 -4 -7 -5 5 -3 25 4 29 1 37 -12 40 -19
4 -25 48 -8 60 11 8 -9 33 -28 33 -8 0 -11 15 -10 43 2 35 -1 42 -16 42 -18 0
-24 28 -10 40 3 3 0 19 -7 35 -7 17 -13 23 -14 15 0 -12 -3 -11 -11 3 -5 9 -7
22 -3 28 4 7 -3 6 -17 -2 -21 -11 -23 -11 -11 3 9 11 10 18 2 23 -6 3 -8 10
-5 15 3 4 -2 11 -11 14 -22 9 -26 8 -18 -5 3 -6 0 -15 -7 -20 -10 -6 -11 -9
-1 -9 17 0 15 -17 -4 -24 -9 -4 -23 -1 -31 5 -11 10 -9 15 14 30 15 11 24 19
19 19 -5 0 -4 6 2 13 7 8 7 18 2 27 -7 12 -11 7 -16 -17 -4 -18 -11 -33 -16
-33 -6 0 -7 7 -4 16 3 8 2 12 -3 9 -5 -3 -13 -1 -16 5 -4 6 -3 10 2 9 22 -4
33 3 33 21 0 13 -5 18 -15 14 -14 -6 -21 12 -16 40 1 5 -5 4 -13 -3 -13 -11
-15 -10 -11 8 2 12 -1 21 -6 21 -6 0 -7 5 -4 10 3 6 -1 10 -10 10 -9 0 -13 5
-10 11 4 6 -2 13 -14 16 -11 3 -23 13 -26 23 -5 15 -11 17 -36 10 -25 -7 -29
-7 -20 4 8 10 8 16 -2 25 -8 6 -17 8 -20 4 -4 -3 -7 1 -7 10 0 10 -7 17 -15
17 -9 0 -15 9 -15 21 0 16 -3 19 -13 11 -7 -6 -18 -7 -26 -3 -7 5 -22 6 -33 3
-12 -3 -18 0 -16 8 2 7 -3 15 -9 17 -7 3 -14 1 -14 -4z m226 -154 c11 -16 1
-19 -13 -3 -7 8 -8 14 -3 14 5 0 13 -5 16 -11z m32 -44 c0 -8 -4 -15 -9 -15
-4 0 -8 7 -8 15 0 8 4 15 8 15 5 0 9 -7 9 -15z m-277 -5 c0 -5 3 -9 8 -9 21 4
34 -3 29 -15 -3 -7 0 -19 6 -25 9 -9 7 -10 -8 -5 -18 7 -19 6 -5 -11 14 -18
14 -18 -12 0 -15 11 -25 26 -23 34 3 7 0 20 -6 27 -8 10 -8 14 0 14 6 0 11 -4
11 -10z m0 -95 c0 -8 -4 -15 -10 -15 -5 0 -7 7 -4 15 4 8 8 15 10 15 2 0 4 -7
4 -15z m9 -36 c-12 -7 -11 -9 1 -9 12 0 13 -2 1 -9 -10 -7 -11 -13 -2 -27 6
-11 11 -16 11 -11 0 4 11 0 25 -9 23 -15 29 -13 26 8 0 4 6 5 14 1 13 -5 13
-7 -2 -18 -10 -7 -22 -11 -28 -7 -5 3 -2 -4 8 -15 14 -16 15 -22 5 -27 -11 -5
-10 -7 1 -12 11 -5 11 -8 0 -15 -11 -7 -10 -9 3 -9 9 0 28 -11 42 -25 14 -14
21 -25 15 -25 -6 0 -6 -7 1 -19 15 -29 13 -84 -2 -75 -9 5 -9 2 1 -9 15 -18
26 -23 16 -7 -3 6 -1 10 4 10 16 0 14 -10 -6 -34 -17 -20 -17 -20 0 -7 14 11
17 11 17 -1 0 -8 -6 -20 -12 -27 -10 -11 -10 -13 0 -7 7 5 12 1 12 -9 0 -12
-5 -15 -17 -11 -16 5 -16 5 -3 -6 10 -8 16 -31 17 -63 1 -36 -1 -45 -8 -35 -9
13 -10 13 -6 0 2 -9 13 -14 25 -12 17 3 21 -1 19 -16 -4 -24 -32 -53 -43 -44
-5 4 -2 -2 6 -12 14 -18 13 -18 -9 -11 -16 5 -21 4 -17 -4 4 -6 13 -11 20 -11
10 0 13 -18 13 -70 -1 -38 -4 -70 -7 -70 -3 0 -15 7 -26 15 -12 8 -25 11 -29
7 -5 -4 -5 -1 -1 6 4 7 12 10 17 7 11 -8 11 -3 -1 30 -8 21 -6 29 11 46 18 18
18 20 2 17 -12 -2 -17 2 -14 12 8 36 8 61 -1 66 -5 3 -1 15 9 27 10 11 13 17
6 14 -6 -4 -14 -3 -18 3 -3 5 0 10 8 10 15 0 28 21 26 43 0 7 -4 2 -10 -11 -5
-13 -14 -20 -19 -17 -8 5 -7 12 2 23 11 13 11 14 -2 7 -13 -8 -13 -7 0 11 8
10 11 16 6 12 -13 -11 -36 18 -36 46 0 20 -5 26 -21 26 -17 0 -19 3 -10 14 8
10 9 16 1 21 -6 3 -8 10 -5 14 2 5 -7 7 -20 5 -14 -1 -32 4 -40 13 -13 12 -16
12 -20 1 -4 -9 -18 -14 -38 -12 -44 3 -44 3 -27 15 12 8 9 10 -13 6 -16 -3
-34 1 -42 9 -9 9 -16 10 -20 4 -3 -5 -1 -10 5 -10 6 0 8 -5 4 -12 -4 -6 -3 -8
4 -5 13 9 42 -2 42 -15 0 -6 -6 -5 -15 2 -11 9 -15 9 -15 1 0 -7 -9 -6 -25 5
-14 9 -23 20 -20 24 3 5 -3 13 -12 19 -14 8 -11 9 17 7 19 -2 42 -6 50 -8 8
-3 12 -3 7 -1 -4 3 -4 9 -1 14 3 6 11 5 20 -2 12 -9 14 -6 14 19 0 16 -7 35
-15 42 -8 7 -12 16 -10 20 7 11 45 8 45 -3 0 -5 -7 -7 -14 -4 -10 4 -13 1 -9
-9 5 -13 9 -12 28 6 19 18 23 19 28 6 4 -9 13 -16 21 -16 10 0 13 6 9 17 -5
12 -3 14 8 8 12 -7 12 -6 1 7 -11 14 -10 18 5 27 16 9 17 10 1 11 -11 0 -15 5
-12 15 4 8 11 12 18 8 8 -4 8 -2 -1 7 -6 7 -9 19 -6 28 4 9 2 13 -4 9 -10 -6
-11 12 -3 33 1 3 2 9 1 14 -1 4 4 15 11 23 9 11 13 12 16 3 3 -7 -2 -16 -9
-21z m31 -20 c-7 -13 -7 -19 0 -19 5 0 10 -5 10 -10 0 -6 -8 -5 -19 2 -11 7
-17 17 -13 23 4 5 7 13 8 18 1 4 2 10 3 13 0 3 6 2 11 -1 7 -4 7 -13 0 -26z
m-260 -60 c0 -5 -9 -14 -20 -22 -11 -8 -17 -18 -12 -23 4 -4 -1 -2 -10 5 -15
11 -17 10 -13 -8 3 -18 1 -20 -15 -11 -27 14 -37 12 -16 -3 16 -12 13 -13 -23
-15 -33 -2 -40 0 -35 13 5 13 9 13 22 3 10 -8 13 -8 9 -2 -6 11 19 29 36 26 4
-1 11 8 16 21 6 16 17 23 35 23 14 0 26 -3 26 -7z m147 5 c-3 -3 -12 -4 -19
-1 -8 3 -5 6 6 6 11 1 17 -2 13 -5z m-3 -26 c-3 -5 -10 -6 -15 -3 -5 4 -9 2
-9 -4 0 -5 6 -12 13 -15 9 -4 -19 -2 -43 4 -3 0 3 6 12 14 19 14 50 17 42 4z
m507 -18 c6 0 7 6 3 13 -5 8 -2 7 9 -2 12 -10 14 -17 7 -26 -8 -9 -3 -17 15
-29 14 -10 23 -22 19 -28 -5 -7 -15 -1 -30 17 -13 16 -21 32 -18 36 2 4 -3 9
-11 13 -8 3 -15 11 -14 18 0 10 2 10 6 1 2 -7 9 -13 14 -13z m-799 -54 c7 4 8
2 4 -4 -4 -6 -13 -9 -21 -6 -8 4 -12 11 -8 17 5 8 8 7 11 -1 2 -7 9 -9 14 -6z
m203 -14 c-3 -3 -11 0 -18 7 -9 10 -8 11 6 5 10 -3 15 -9 12 -12z m679 -83
c-3 -5 -10 -7 -15 -3 -5 3 -7 10 -3 15 3 5 10 7 15 3 5 -3 7 -10 3 -15z m-894
-19 c0 -5 -2 -10 -4 -10 -3 0 -8 5 -11 10 -3 6 -1 10 4 10 6 0 11 -4 11 -10z
m182 -47 c-10 -4 -10 -8 0 -21 12 -15 11 -16 -4 -3 -19 14 -15 32 5 30 8 0 8
-2 -1 -6z m-466 -114 c-2 -17 -8 -34 -12 -37 -4 -4 -4 1 -1 11 4 9 2 17 -3 17
-6 0 -5 9 2 20 17 27 20 25 14 -11z m85 -39 c19 11 36 -14 17 -26 -7 -4 -8 -3
-4 4 4 7 1 12 -8 12 -9 0 -16 -6 -16 -12 0 -9 -4 -8 -10 2 -5 8 -10 11 -10 7
0 -5 -5 -5 -10 -2 -6 4 -7 11 -4 17 4 6 10 6 17 -1 6 -6 16 -7 28 -1z m-86
-40 c-3 -5 -11 -10 -16 -10 -6 0 -7 5 -4 10 3 6 11 10 16 10 6 0 7 -4 4 -10z
m1265 -28 c-6 -2 -8 -8 -4 -13 3 -5 1 -9 -4 -9 -15 0 -22 26 -9 39 8 8 13 8
19 -2 4 -6 3 -14 -2 -15z m-1363 -37 c0 -8 -4 -15 -9 -15 -10 0 -11 14 -1 23
9 10 10 9 10 -8z m1367 -10 c3 -8 13 -15 21 -15 9 0 14 -4 11 -9 -12 -20 -48
-3 -52 24 -3 20 12 19 20 0z m-1561 -94 c11 -2 -2 -21 -14 -21 -6 0 -7 5 -4
10 3 6 1 10 -5 10 -7 0 -10 -7 -6 -15 7 -20 -3 -19 -27 3 -20 17 -20 17 -3
-10 17 -26 19 -26 41 -12 27 17 47 11 39 -11 -4 -10 -14 -13 -30 -9 -14 4 -24
2 -23 -2 4 -26 -3 -31 -46 -27 -34 4 -45 2 -45 -9 0 -7 -8 -21 -18 -29 -17
-15 -20 -15 -30 2 -7 10 -12 23 -12 29 0 17 18 11 23 -7 3 -11 5 -7 6 10 0 15
6 27 12 27 5 0 7 -4 4 -10 -3 -6 1 -7 10 -3 13 4 14 8 4 14 -8 4 -10 11 -6 15
3 4 13 1 21 -5 10 -8 16 -9 21 -1 4 6 1 9 -6 8 -6 -2 -14 3 -17 11 -3 8 0 11
7 7 6 -4 11 -1 11 8 0 21 34 28 93 17z m1091 -62 c14 -7 27 -18 30 -25 6 -16
-10 -19 -19 -4 -4 6 -11 8 -16 5 -5 -4 -9 -1 -9 5 0 6 -4 9 -8 6 -5 -3 -9 1
-9 9 0 18 0 18 31 4z m14 -46 c7 -7 11 -17 7 -22 -3 -5 -1 -12 4 -15 5 -3 7
-15 4 -26 -3 -11 -9 -17 -14 -14 -5 3 -9 0 -9 -5 0 -6 4 -11 8 -11 14 0 10
-34 -6 -52 -14 -16 -13 -20 2 -37 9 -10 14 -25 10 -35 -7 -17 -24 -22 -24 -6
0 6 -5 10 -12 10 -6 0 -9 -3 -5 -6 3 -4 0 -13 -8 -20 -7 -8 -11 -23 -8 -34 3
-11 0 -20 -6 -20 -6 0 -11 -5 -11 -11 0 -5 5 -7 10 -4 6 3 10 2 10 -4 0 -5 -6
-12 -12 -14 -7 -3 -4 -6 6 -6 20 -1 20 -1 0 -17 -10 -8 -13 -13 -6 -9 7 4 12
0 12 -10 0 -9 -4 -13 -10 -10 -10 6 -14 -15 -11 -44 2 -7 -2 -11 -7 -7 -5 3
-9 -1 -9 -9 0 -8 3 -14 6 -13 18 2 31 -3 31 -13 0 -5 -3 -8 -8 -5 -4 2 -12 -7
-19 -20 -6 -13 -7 -22 -2 -18 5 3 6 -2 3 -10 -3 -9 -11 -16 -18 -16 -6 0 -12
-16 -13 -35 -1 -19 -9 -45 -17 -57 -9 -12 -16 -30 -16 -40 0 -10 -4 -18 -9
-18 -5 0 -12 -14 -16 -30 -4 -17 -11 -28 -16 -24 -5 3 -9 -1 -9 -10 0 -10 -10
-14 -35 -12 -19 2 -32 -1 -29 -6 3 -5 14 -6 25 -3 23 8 27 -20 5 -32 -12 -6
-10 -11 10 -20 13 -6 24 -7 24 -2 0 5 4 9 8 9 5 0 9 -6 9 -14 0 -8 -5 -14 -11
-13 -6 1 -10 -4 -8 -11 1 -8 -6 -11 -22 -8 -19 3 -23 1 -19 -10 6 -16 -45 -66
-59 -58 -4 3 -5 -2 -2 -10 6 -15 -6 -21 -29 -17 -5 1 -5 -4 -1 -11 15 -24 13
-45 -6 -65 -10 -12 -16 -24 -12 -28 4 -4 0 -5 -8 -3 -8 2 -14 -3 -13 -9 2 -7
-1 -13 -6 -13 -5 0 -7 -9 -4 -20 3 -12 2 -20 -3 -19 -21 4 -34 -2 -31 -13 1
-7 -6 -12 -15 -12 -10 1 -14 -4 -11 -12 3 -8 -2 -17 -11 -20 -9 -3 -16 -12
-16 -20 0 -8 -7 -14 -16 -14 -8 0 -12 -4 -9 -10 3 -5 1 -10 -5 -10 -6 0 -8 -5
-4 -12 5 -7 3 -8 -5 -3 -20 11 -51 -31 -53 -70 -1 -32 -8 -40 -32 -36 -5 1 -4
-4 2 -12 9 -11 7 -18 -11 -35 -13 -12 -27 -19 -31 -15 -4 4 -4 -1 0 -11 5 -13
4 -17 -4 -12 -6 3 -13 2 -17 -4 -4 -6 -11 -7 -17 -4 -6 4 -8 2 -4 -4 3 -6 0
-14 -7 -19 -7 -4 -17 -16 -20 -26 -4 -11 -12 -15 -19 -11 -7 4 -10 3 -5 -1 9
-10 -43 -66 -54 -59 -5 3 -6 -2 -3 -10 4 -9 -1 -18 -10 -22 -9 -3 -13 -10 -10
-15 3 -5 1 -9 -5 -9 -5 0 -11 5 -13 11 -6 19 -36 -2 -54 -39 -22 -48 -21 -47
-41 -31 -16 12 -17 12 -6 -2 10 -13 8 -20 -17 -40 -16 -13 -29 -30 -30 -36 0
-16 -12 -16 -30 0 -12 10 -12 9 -2 -5 11 -13 10 -19 -3 -30 -9 -7 -22 -19 -30
-25 -7 -7 -23 -13 -34 -13 -12 0 -21 -4 -21 -9 0 -14 -44 -21 -52 -8 -6 9 -8
9 -8 -2 0 -8 -7 -11 -20 -8 -11 3 -23 0 -27 -5 -3 -7 -1 -8 5 -4 7 4 12 1 12
-8 0 -9 -8 -16 -17 -17 -28 -1 -54 -7 -61 -14 -4 -3 8 -3 27 0 21 4 30 2 26
-5 -3 -5 -13 -10 -21 -10 -8 0 -13 -4 -10 -9 3 -5 -5 -11 -19 -13 -15 -3 -25
-1 -25 6 0 7 -3 7 -8 1 -11 -15 -46 -19 -36 -4 4 8 3 10 -4 5 -6 -4 -9 -13 -5
-21 3 -10 -2 -15 -16 -16 -57 -4 -66 -6 -64 -15 1 -6 -10 -12 -25 -12 -15 -1
-37 -3 -50 -6 -20 -4 -21 -3 -11 16 8 15 14 17 22 9 6 -6 16 -11 22 -11 5 0 2
5 -8 11 -10 6 -14 16 -10 22 3 7 -3 4 -14 -6 -11 -9 -23 -14 -26 -10 -11 10
-8 20 6 21 23 2 42 8 57 17 8 5 20 10 25 12 6 1 21 4 34 7 14 3 30 1 37 -5 8
-7 14 -7 19 1 3 6 11 7 17 4 6 -4 5 2 -2 15 -10 20 -9 21 17 16 l28 -6 -24 14
c-15 9 -20 17 -12 21 6 4 11 3 11 -3 0 -5 9 -8 21 -6 16 3 19 0 14 -13 -4 -13
-3 -14 5 -6 6 6 13 20 14 30 4 25 52 37 71 17 8 -8 15 -11 15 -6 0 5 -5 14
-11 20 -13 13 -3 36 12 28 5 -4 12 1 15 9 3 9 13 16 22 16 13 0 13 -2 -3 -13
-14 -11 -15 -16 -5 -22 9 -6 11 -4 5 5 -6 10 -4 12 8 7 9 -3 16 -3 16 1 -4 27
3 43 18 40 11 -2 19 5 21 17 2 11 11 24 18 28 8 5 12 13 8 19 -4 5 6 2 22 -8
27 -18 27 -18 17 0 -8 15 -4 25 23 53 19 19 31 39 28 44 -3 5 -2 8 3 7 4 -1
23 6 41 15 18 10 37 15 42 12 5 -3 12 -1 15 5 4 6 3 10 -2 9 -20 -3 -34 2 -28
11 4 6 11 7 17 4 8 -5 9 -1 4 11 -5 15 -4 16 8 6 11 -9 16 -9 22 0 4 8 3 9 -4
5 -7 -4 -12 -4 -13 1 0 4 -2 18 -3 30 -2 18 0 20 11 12 9 -9 13 -8 13 0 0 7 5
9 10 6 6 -4 9 -1 8 7 -2 7 3 12 10 10 8 -1 11 2 7 8 -3 6 -10 8 -15 5 -5 -3
-11 -1 -15 5 -3 6 1 13 9 16 17 6 15 52 -2 63 -5 3 -12 16 -16 29 -4 12 -12
19 -18 16 -6 -4 -9 -3 -6 2 3 5 0 15 -8 22 -8 7 -14 10 -14 6 0 -3 -6 -1 -14
5 -11 9 -15 9 -19 -1 -4 -10 -6 -10 -6 -1 -1 7 8 18 18 25 10 6 17 18 14 25
-4 10 -9 11 -19 2 -10 -8 -14 -8 -14 0 0 6 5 11 11 11 5 0 7 5 4 10 -16 26 70
-37 105 -78 22 -25 43 -42 47 -39 3 4 1 7 -5 7 -7 0 -12 7 -12 15 0 8 5 15 11
15 5 0 8 -4 5 -8 -2 -4 5 -14 17 -22 20 -12 21 -12 8 3 -12 15 -11 17 6 17 10
0 24 5 31 12 8 8 15 8 27 -2 8 -7 15 -9 15 -5 0 4 -8 14 -17 22 -10 8 -12 12
-5 8 6 -3 12 -2 12 4 0 5 13 12 30 16 16 4 33 11 37 17 4 8 0 9 -11 5 -10 -4
-15 -3 -11 3 3 6 14 10 23 10 9 0 24 5 32 11 12 9 11 10 -4 5 -18 -6 -19 -5
-4 11 8 10 24 28 34 41 10 12 24 22 31 22 6 0 15 4 18 10 3 5 0 7 -9 4 -13 -5
-14 -1 -7 35 1 2 7 -2 15 -8 11 -9 13 -6 11 14 -2 14 1 23 6 19 5 -3 6 -10 3
-16 -5 -7 -2 -8 5 -4 7 5 10 14 7 22 -3 8 -1 14 5 14 6 0 7 6 3 13 -4 6 -4 9
1 5 12 -11 35 11 28 28 -3 8 0 14 7 14 6 0 8 -5 4 -12 -6 -10 -4 -10 7 -2 8 6
21 14 29 18 8 3 5 4 -7 2 -13 -2 -26 0 -29 5 -3 5 -2 8 3 7 19 -5 51 22 46 40
-3 13 1 19 12 19 10 0 14 -6 10 -16 -5 -13 -4 -14 6 -3 10 9 10 15 1 24 -19
19 -14 32 6 17 14 -11 13 -10 -2 9 -12 13 -14 22 -7 22 7 0 9 5 5 12 -4 6 -3
8 3 5 6 -4 14 0 17 9 3 8 2 12 -4 9 -6 -4 -7 1 -3 11 6 15 7 15 21 -2 14 -18
14 -18 7 1 -13 36 -12 50 4 63 14 12 14 13 -3 8 -16 -6 -17 -4 -6 9 7 8 17 12
24 8 6 -4 5 1 -3 10 -11 13 -11 17 -1 17 8 0 10 3 7 7 -4 3 3 18 15 31 13 14
16 21 8 17 -13 -8 -13 -7 -1 8 11 14 11 17 0 17 -11 0 -11 2 1 10 8 5 10 10 3
10 -12 0 -12 17 0 38 5 7 3 12 -3 12 -7 0 -8 6 0 19 7 14 7 22 -2 27 -6 4 -8
3 -5 -2 3 -5 -3 -10 -13 -10 -10 0 -16 4 -14 8 3 5 -4 7 -16 5 -12 -2 -26 -10
-31 -18 -7 -11 -9 -11 -9 -1 0 7 -4 11 -9 8 -10 -6 -25 24 -16 32 3 3 5 0 5
-6 0 -7 4 -12 8 -12 14 0 10 29 -5 34 -7 3 -13 10 -13 16 0 6 10 2 22 -9 11
-11 26 -18 31 -14 6 3 7 1 3 -5 -3 -6 -2 -13 4 -17 5 -3 10 1 10 9 0 9 5 16
11 16 5 0 8 -4 4 -9 -12 -20 16 -21 37 -2 12 12 29 21 37 21 14 0 14 1 1 10
-13 8 -13 10 3 11 31 3 35 4 44 12 4 5 3 8 -2 7 -6 -1 -17 -2 -25 -1 -13 1
-13 2 0 11 13 9 13 10 0 11 -8 1 -19 1 -23 0 -4 -1 -3 8 3 19 12 22 22 27 14
7 -3 -8 2 -14 11 -14 8 0 15 4 15 9 0 5 6 6 13 2 9 -6 8 -3 -1 8 -12 14 -9 19
15 33 27 15 27 16 3 10 -14 -2 -19 -2 -12 1 6 3 10 9 7 14 -2 4 6 18 19 31 14
14 23 35 22 49 -1 14 5 30 14 37 10 9 11 12 3 13 -7 0 -13 5 -13 11 0 6 10 8
23 5 12 -3 16 -3 9 0 -6 3 -10 10 -7 15 4 5 -2 6 -12 3 -15 -5 -16 -4 -3 5 20
14 41 14 38 0 -2 -6 3 -13 10 -14 7 -2 8 -1 2 2 -5 2 -7 9 -4 15 3 5 -3 12
-15 15 -12 3 -21 9 -21 13 0 4 9 10 21 13 12 3 18 10 15 15 -3 6 -1 13 4 15 6
3 5 4 -2 3 -7 -2 -12 -9 -10 -15 1 -6 -4 -11 -10 -11 -8 0 -13 15 -13 40 -1
42 14 50 43 23z m-1343 -131 c-3 -3 -11 0 -18 7 -9 10 -8 11 6 5 10 -3 15 -9
12 -12z m-30 -161 c3 -5 2 -12 -3 -15 -5 -3 -9 1 -9 9 0 17 3 19 12 6z m1185
-55 c0 -2 -8 -10 -17 -17 -16 -13 -17 -12 -4 4 13 16 21 21 21 13z m-209 -38
c0 -10 2 -10 6 0 2 6 9 12 15 12 6 0 5 -6 -2 -15 -12 -14 -10 -15 15 -11 15 3
25 2 21 -1 -15 -15 -44 -11 -61 7 -10 12 -13 20 -7 20 7 0 12 -6 13 -12z
m-976 -48 c3 -6 -1 -7 -9 -4 -18 7 -21 14 -7 14 6 0 13 -4 16 -10z m-389 -35
c1 -8 -1 -17 -5 -19 -4 -3 -7 6 -7 19 0 25 8 25 12 0z m152 0 c-3 -3 -9 2 -12
12 -6 14 -5 15 5 6 7 -7 10 -15 7 -18z m-226 -3 c3 8 7 6 11 -5 3 -9 3 -16 -1
-16 -21 3 -32 -2 -26 -13 4 -6 3 -8 -4 -4 -6 3 -10 15 -9 26 1 13 5 16 13 9 8
-7 13 -6 16 3z m293 -72 c16 -17 16 -20 3 -15 -9 4 -19 13 -22 21 -7 19 -2 18
19 -6z m1069 -29 c-5 -6 -34 20 -34 30 0 5 8 1 18 -8 10 -10 17 -20 16 -22z
m-961 -78 c-3 -7 -6 -13 -8 -13 -2 0 -5 6 -8 13 -3 8 1 14 8 14 7 0 11 -6 8
-14z m-376 0 c-4 -3 1 -12 11 -20 16 -12 16 -13 -2 -6 -12 4 -17 3 -13 -4 3
-5 0 -10 -8 -10 -8 0 -11 5 -7 11 4 6 7 14 8 19 3 15 4 17 11 17 3 0 3 -3 0
-7z m396 -53 c3 -11 1 -18 -4 -14 -5 3 -9 12 -9 20 0 20 7 17 13 -6z m271 -20
c-6 -6 -10 -3 -10 10 0 13 4 16 10 10 7 -7 7 -13 0 -20z m1572 -15 c-3 -17 0
-25 10 -25 10 0 14 -13 14 -52 0 -50 0 -51 -20 -33 -11 10 -20 13 -20 7 0 -7
4 -12 10 -12 5 0 7 -6 4 -14 -3 -8 -13 -13 -22 -10 -9 3 -7 -1 5 -7 18 -9 21
-18 17 -47 -2 -20 -6 -38 -9 -40 -9 -9 -62 19 -62 33 0 20 27 28 45 13 10 -8
13 -9 9 -1 -4 6 -4 13 0 16 5 2 2 2 -4 1 -7 -2 -13 1 -13 7 0 6 -4 8 -8 5 -4
-2 -8 4 -8 14 0 10 4 18 9 17 5 -1 11 6 12 16 2 10 11 27 19 36 18 20 20 37 6
46 -5 3 -7 0 -4 -9 7 -19 -4 -38 -17 -30 -6 4 -6 11 2 20 9 11 8 14 -2 14 -11
0 -11 2 1 10 13 9 13 10 0 10 -13 0 -13 1 0 10 8 5 11 10 7 10 -12 0 2 20 14
20 5 0 7 -11 5 -25z m-2435 -2 c13 -16 12 -17 -3 -4 -10 7 -18 15 -18 17 0 8
8 3 21 -13z m909 -3 c18 -12 2 -12 -25 0 -13 6 -15 9 -5 9 8 0 22 -4 30 -9z
m-332 -25 c-3 -3 -9 2 -12 12 -6 14 -5 15 5 6 7 -7 10 -15 7 -18z m-592 3 c4
-7 3 -8 -4 -4 -7 4 -12 2 -12 -5 0 -7 -3 -10 -6 -6 -6 5 3 27 11 27 2 0 7 -5
11 -12z m688 3 c3 -4 0 -13 -6 -21 -8 -12 -9 -11 -4 4 5 13 2 17 -9 13 -8 -4
-16 -3 -19 1 -3 4 4 8 14 9 11 1 22 -2 24 -6z m-120 -28 c-1 -16 -3 -32 -3
-38 -1 -5 -5 -4 -10 4 -5 7 -11 9 -14 4 -3 -5 3 -15 15 -22 11 -7 18 -9 15 -4
-3 4 2 14 9 21 13 11 14 10 10 -12 -3 -14 -7 -30 -11 -36 -3 -5 -1 -10 4 -10
6 0 11 7 11 15 0 29 31 11 36 -21 3 -20 -78 2 -97 27 -10 13 -15 27 -13 31 3
4 -1 8 -8 9 -10 0 -10 2 0 6 6 2 10 8 7 13 -2 4 5 7 18 6 12 0 22 5 23 12 2
17 4 22 7 22 2 0 3 -12 1 -27z m-650 -134 c-2 -18 -12 -38 -21 -45 -17 -13
-17 -14 2 -8 16 5 17 4 5 -4 -17 -13 -33 -5 -26 13 2 7 -1 18 -7 25 -7 7 -7
10 -2 8 6 -3 16 0 23 8 7 8 9 14 5 14 -6 0 16 19 23 20 1 0 0 -14 -2 -31z
m496 22 c0 -6 -4 -12 -8 -15 -5 -3 -9 1 -9 9 0 8 4 15 9 15 4 0 8 -4 8 -9z
m-150 -21 c8 -5 11 -12 6 -17 -10 -11 -67 -12 -60 -2 3 5 0 9 -7 9 -7 0 -10 3
-7 6 4 3 15 1 27 -5 11 -7 22 -7 25 -2 4 5 0 12 -6 14 -7 3 -8 6 -3 6 6 0 17
-3 25 -9z m1420 6 c0 -2 -9 -6 -20 -9 -11 -3 -18 -1 -14 4 5 9 34 13 34 5z
m-1715 -34 c-3 -3 -11 0 -18 7 -9 10 -8 11 6 5 10 -3 15 -9 12 -12z m-103 -10
c-9 -6 -7 -14 9 -31 l22 -23 -21 7 c-17 5 -21 3 -16 -9 3 -9 1 -16 -5 -16 -6
0 -13 0 -16 0 -12 0 -12 30 0 40 8 6 11 18 8 26 -3 9 1 14 13 14 13 0 15 -3 6
-8z m1262 -4 c-5 -8 -2 -9 9 -5 9 3 16 3 16 -1 -3 -20 3 -23 19 -11 15 12 16
12 5 -2 -7 -9 -10 -19 -6 -22 3 -4 1 -7 -5 -7 -7 0 -12 6 -12 13 0 9 -2 9 -8
-1 -6 -9 -12 -6 -20 12 -6 13 -8 27 -5 30 10 10 15 7 7 -6z m-877 -15 c0 -7
-4 -13 -9 -13 -5 0 -7 -4 -3 -9 3 -5 -2 -16 -10 -24 -18 -18 -20 -31 -3 -21 7
4 8 3 4 -5 -4 -6 -11 -9 -16 -6 -4 3 -10 -1 -13 -7 -2 -7 -4 3 -3 22 2 35 12
48 24 34 4 -4 1 -4 -7 1 -10 5 -12 4 -7 -4 4 -6 12 -8 18 -5 7 5 3 13 -11 25
-19 16 -20 18 -4 21 31 7 40 5 40 -9z m193 -68 c0 -2 -9 -3 -19 -2 -11 0 -18
5 -15 9 4 6 34 0 34 -7z m1942 -17 c3 -7 2 -22 -1 -33 -5 -18 -13 -20 -45 -16
-5 0 -3 8 4 16 7 8 9 15 6 15 -8 0 17 29 25 30 4 0 9 -6 11 -12z m-2762 -14
c0 -8 -5 -12 -10 -9 -6 4 -8 11 -5 16 9 14 15 11 15 -7z m814 4 c-3 -5 -10 -5
-16 -2 -6 4 -8 1 -6 -7 3 -8 10 -13 16 -12 6 2 9 -4 6 -12 -6 -15 -25 -21 -23
-7 3 19 -2 25 -11 12 -8 -12 -9 -9 -8 11 2 19 8 25 24 25 13 0 20 -4 18 -8z
m-470 -6 c3 -5 -1 -9 -9 -9 -8 0 -12 4 -9 9 3 4 7 8 9 8 2 0 6 -4 9 -8z m1046
-2 c0 -5 -5 -10 -11 -10 -5 0 -7 5 -4 10 3 6 8 10 11 10 2 0 4 -4 4 -10z
m-817 -15 c-3 -9 -8 -14 -10 -11 -3 3 -2 9 2 15 9 16 15 13 8 -4z m-523 -25
c0 -5 -4 -10 -10 -10 -5 0 -10 5 -10 10 0 6 5 10 10 10 6 0 10 -4 10 -10z
m1393 -15 c-7 -21 -12 -19 -10 4 0 11 5 18 9 15 4 -3 5 -11 1 -19z m235 1 c-7
-8 -17 -12 -22 -9 -4 3 -2 9 5 14 22 13 31 11 17 -5z m24 -8 c-15 -15 -16 -31
0 -22 7 5 8 3 3 -5 -5 -9 -10 -10 -18 -2 -10 10 6 41 21 41 3 0 1 -5 -6 -12z
m-1124 -43 c-3 -3 -9 2 -12 12 -6 14 -5 15 5 6 7 -7 10 -15 7 -18z m2120 -15
c1 -30 -21 -43 -31 -17 -4 9 -6 9 -6 0 -1 -6 3 -14 9 -18 5 -3 7 -12 3 -20 -3
-9 1 -23 8 -32 13 -15 12 -15 -8 -4 -15 8 -20 17 -16 28 6 15 5 16 -9 3 -9 -8
-12 -17 -8 -20 10 -7 8 -40 -3 -40 -5 0 -7 7 -4 15 4 8 2 17 -4 21 -6 4 -4 13
7 25 9 10 14 19 10 19 -4 0 -2 9 4 20 7 13 16 17 28 13 15 -6 16 -5 2 12 -9
11 -10 16 -2 11 6 -4 12 -2 12 3 0 26 7 8 8 -19z m-3011 2 c-9 -2 -15 -7 -13
-11 8 -12 -11 -34 -24 -26 -8 5 -5 14 11 31 12 13 27 20 33 16 7 -4 4 -8 -7
-10z m1533 -27 c0 -1 -12 -2 -26 -2 -17 0 -22 2 -13 7 10 7 39 3 39 -5z m-52
-36 c-3 -8 -7 -3 -11 10 -4 17 -3 21 5 13 5 -5 8 -16 6 -23z m-275 13 c4 9 6
7 6 -4 1 -10 -6 -16 -17 -15 -10 0 -19 7 -19 14 0 9 4 10 13 2 8 -7 14 -6 17
3z m318 -16 c5 3 6 11 3 17 -3 7 5 -1 20 -17 31 -34 30 -33 12 -33 -8 0 -14 5
-13 10 1 5 -4 12 -11 14 -8 3 -10 -1 -5 -13 6 -15 4 -15 -14 2 -11 10 -17 26
-14 34 4 12 6 12 9 -3 2 -9 8 -15 13 -11z m275 -18 c3 -4 -1 -5 -10 -4 -8 1
-18 5 -22 8 -3 4 1 5 10 4 8 -1 18 -5 22 -8z m-592 -7 c4 -5 -3 -7 -14 -4 -23
6 -26 13 -6 13 8 0 17 -4 20 -9z m-4 -25 c0 -2 -7 -6 -15 -10 -8 -3 -15 -1
-15 4 0 6 7 10 15 10 8 0 15 -2 15 -4z m-632 -41 c-3 -3 -9 2 -12 12 -6 14 -5
15 5 6 7 -7 10 -15 7 -18z m312 17 c0 -5 -7 -9 -15 -9 -8 0 -12 4 -9 9 3 4 9
8 15 8 5 0 9 -4 9 -8z m330 -4 c0 -6 -3 -8 -7 -5 -3 4 -16 -1 -27 -10 -21 -18
-21 -18 -2 5 21 24 36 29 36 10z m1745 2 c-3 -5 -1 -10 4 -10 6 0 11 -4 11
-10 0 -14 -27 -1 -34 16 -3 8 1 14 10 14 8 0 12 -4 9 -10z m-2938 -35 c4 -4 2
-5 -6 0 -11 6 -13 3 -9 -11 6 -24 -17 -47 -49 -49 -30 -1 -29 12 3 46 25 26
46 31 61 14z m548 -5 c3 -6 -1 -7 -9 -4 -18 7 -21 14 -7 14 6 0 13 -4 16 -10z
m620 0 c-3 -5 -12 -10 -18 -10 -7 0 -6 4 3 10 19 12 23 12 15 0z m161 -12 c0
-10 -1 -18 -3 -18 -1 0 -7 8 -12 18 -7 13 -6 19 2 19 7 0 13 -9 13 -19z m-966
-2 c0 -3 -4 -8 -10 -11 -5 -3 -10 -1 -10 4 0 6 5 11 10 11 6 0 10 -2 10 -4z
m-256 -12 c9 -3 16 -13 16 -21 0 -13 -2 -13 -17 -2 -11 10 -14 10 -9 2 4 -7 2
-13 -3 -13 -6 0 -11 9 -11 20 0 22 1 23 24 14z m-315 -48 c1 -6 -5 -1 -13 9
-8 11 -12 24 -8 29 5 9 20 -17 21 -38z m1521 34 c0 -5 -2 -10 -4 -10 -3 0 -8
5 -11 10 -3 6 -1 10 4 10 6 0 11 -4 11 -10z m-1381 -22 c14 5 14 4 2 -12 -11
-13 -16 -14 -22 -4 -6 9 -9 7 -10 -7 0 -11 -3 -15 -5 -8 -3 7 -12 9 -21 6 -12
-5 -12 -2 3 15 11 13 22 18 27 13 5 -5 17 -7 26 -3z m171 -12 c0 -2 -7 -7 -16
-10 -8 -3 -12 -2 -9 4 6 10 25 14 25 6z m-44 -28 c4 -7 3 -8 -4 -4 -8 4 -12 0
-12 -11 0 -15 -2 -16 -10 -3 -6 9 -5 17 3 22 15 10 15 10 23 -4z m1077 -13
c-3 -9 -8 -14 -10 -11 -3 3 -2 9 2 15 9 16 15 13 8 -4z m-1398 -5 c4 -6 11 -7
17 -4 7 4 8 2 4 -4 -3 -6 3 -16 14 -22 11 -6 19 -16 17 -22 -1 -7 3 -12 10
-13 6 0 15 -4 20 -9 5 -5 3 -6 -4 -2 -7 4 -13 2 -13 -3 0 -6 9 -11 20 -11 19
0 24 -10 21 -39 -2 -7 3 -10 9 -6 6 4 9 13 6 21 -3 7 0 16 6 20 7 4 8 3 4 -4
-4 -7 -2 -12 4 -12 6 0 10 -7 8 -16 -2 -10 4 -19 12 -21 13 -4 13 -3 0 6 -13
9 -13 11 0 11 9 0 33 17 54 38 25 24 35 29 28 15 -14 -26 -15 -36 -4 -29 5 3
9 -1 9 -9 0 -8 -5 -11 -10 -8 -6 4 -8 -1 -4 -11 5 -12 3 -16 -5 -14 -7 3 -13
10 -13 16 0 5 -4 14 -9 19 -5 5 -6 2 -1 -6 5 -9 4 -12 -3 -7 -6 3 -14 1 -18
-5 -4 -7 -3 -9 3 -6 13 8 36 -17 25 -28 -4 -5 -1 -5 6 -1 8 5 12 0 12 -13 0
-11 8 -25 18 -30 9 -6 13 -11 7 -11 -5 0 1 -7 13 -16 12 -8 22 -25 22 -37 0
-12 4 -17 8 -12 8 12 44 16 37 5 -5 -8 33 -26 48 -22 4 1 6 -1 6 -5 -3 -20 2
-26 11 -13 6 9 10 10 10 3 0 -6 -4 -15 -10 -18 -13 -8 -13 -35 0 -35 5 0 7 7
4 15 -5 11 -2 13 10 9 9 -3 13 -11 9 -17 -4 -7 0 -8 12 -3 15 5 16 4 5 -9 -11
-13 -10 -14 2 -10 16 6 48 -19 48 -37 0 -6 6 -5 15 2 13 10 18 11 28 1 9 -10
9 -12 -2 -9 -7 2 -16 -3 -18 -9 -6 -15 13 -17 22 -3 4 6 11 8 16 5 5 -3 6 2 3
12 -6 15 -4 15 9 -2 11 -15 12 -22 4 -27 -9 -6 -9 -8 0 -8 7 0 10 -7 7 -17 -5
-16 -5 -16 5 -1 11 17 51 14 51 -4 0 -5 5 -6 10 -3 6 4 7 11 4 17 -5 7 -2 8 7
2 8 -5 16 -9 19 -9 11 -1 44 -24 35 -25 -5 0 -4 -4 4 -9 7 -5 10 -14 6 -20 -5
-8 -11 -9 -19 -2 -9 8 -18 6 -32 -4 -23 -17 -34 -19 -34 -4 0 5 4 8 8 5 4 -2
9 5 9 17 2 20 1 20 -8 5 -12 -22 -42 -23 -58 -4 -7 8 -22 13 -33 11 -12 -3
-28 1 -37 8 -12 10 -13 9 -7 -3 4 -8 0 -6 -8 5 -9 11 -14 26 -11 35 4 11 2 11
-8 -2 -12 -15 -16 -15 -33 -4 -10 7 -35 16 -55 20 -20 3 -49 18 -65 32 -15 15
-32 27 -38 28 -19 3 -37 17 -31 25 2 5 -3 8 -13 8 -34 0 -43 3 -37 13 3 6 -3
10 -14 10 -12 0 -21 6 -21 14 0 8 -7 17 -16 20 -9 3 -14 13 -11 21 4 9 1 12
-9 8 -7 -3 -14 -1 -15 3 -2 30 -12 45 -55 89 -26 28 -52 51 -56 51 -4 1 -11 3
-15 4 -5 1 -11 2 -15 1 -5 0 -8 6 -8 14 0 8 -6 14 -12 13 -7 -2 -12 5 -12 15
1 9 -1 17 -5 17 -4 0 -7 10 -6 21 2 35 55 64 70 39z m1940 -19 c-9 -8 -36 -10
-30 -2 2 4 11 8 20 8 8 0 13 -3 10 -6z m-1643 -8 c-6 -3 -9 -9 -6 -15 4 -6 -2
-5 -15 1 -27 15 -27 16 7 17 15 1 21 -1 14 -3z m2748 -18 c0 -8 -4 -15 -10
-15 -5 0 -7 7 -4 15 4 8 8 15 10 15 2 0 4 -7 4 -15z m-2780 -30 c0 -8 -4 -15
-10 -15 -5 0 -7 7 -4 15 4 8 8 15 10 15 2 0 4 -7 4 -15z m2746 6 c-4 -5 -3
-11 1 -14 5 -2 2 -2 -5 0 -24 6 -34 -9 -15 -23 10 -7 13 -14 7 -14 -6 0 -17 6
-23 14 -10 11 -7 17 11 30 26 18 32 20 24 7z m-1492 -60 c-2 -3 -12 3 -22 13
-16 17 -16 18 5 5 12 -7 20 -15 17 -18z m-661 -8 c-9 -13 -20 -23 -25 -23 -5
0 -2 7 6 16 20 20 20 28 1 20 -8 -3 -15 -1 -15 4 0 5 11 9 24 8 22 -2 23 -3 9
-25z m424 10 c-1 -10 -6 -24 -11 -32 -5 -8 -3 -16 5 -22 10 -6 11 -9 2 -9 -14
0 -13 -21 1 -31 4 -4 -4 -6 -18 -6 -15 0 -29 3 -32 8 -3 5 3 6 13 2 10 -3 15
-3 11 2 -4 4 -2 15 5 23 10 13 9 15 -5 9 -15 -5 -16 -4 -5 13 6 11 15 20 19
20 4 0 5 9 3 20 -2 11 0 20 6 20 5 0 8 -8 6 -17z m563 5 c0 -6 -3 -8 -7 -5 -3
4 -11 2 -18 -3 -8 -7 -12 -6 -12 3 0 7 9 14 19 14 10 1 18 -3 18 -9z m1035
-26 c1 -4 7 -18 14 -32 13 -23 13 -24 -3 -10 -22 17 -46 22 -46 8 0 -6 7 -8
15 -4 8 3 15 2 16 -2 0 -4 2 -15 4 -24 2 -10 -5 -20 -15 -23 -10 -3 -20 -12
-22 -20 -2 -11 -12 -7 -35 16 -36 33 -42 49 -17 49 8 0 13 4 9 9 -3 6 4 15 16
21 15 8 19 9 15 1 -4 -6 -2 -11 3 -11 6 0 11 6 11 13 0 8 4 7 10 -3 9 -13 10
-13 11 0 1 8 0 20 -1 25 -1 6 2 6 7 2 4 -5 8 -12 8 -15z m-1382 -7 c-3 -9 -8
-14 -10 -11 -3 3 -2 9 2 15 9 16 15 13 8 -4z m1220 -10 c-3 -9 -8 -14 -10 -11
-3 3 -2 9 2 15 9 16 15 13 8 -4z m-1349 -61 c5 -13 4 -14 -7 -6 -8 7 -17 9
-20 5 -4 -3 -7 -1 -7 5 0 18 27 14 34 -4z m1399 2 c4 -10 1 -13 -9 -9 -10 4
-13 0 -8 -13 5 -15 4 -16 -4 -4 -8 10 -8 18 0 27 13 16 15 16 21 -1z m-1543
-17 c0 -5 5 -7 12 -3 7 5 8 3 2 -7 -5 -8 -9 -18 -9 -23 0 -5 -7 -10 -16 -12
-15 -2 -18 12 -9 36 1 3 2 8 1 13 0 4 4 7 9 7 6 0 10 -5 10 -11z m1504 -41
c-3 -4 -12 -8 -20 -8 -8 0 -14 4 -14 8 0 4 9 8 19 8 11 0 17 -4 15 -8z m-47
-27 c0 -11 -5 -18 -9 -15 -4 3 -5 11 -1 19 7 21 12 19 10 -4z m103 -1 c-6 -11
-16 -17 -25 -14 -11 5 -14 1 -9 -12 5 -16 4 -16 -5 -4 -8 12 -6 19 10 33 28
23 42 22 29 -3z m-80 -20 c-6 -11 -12 -20 -14 -20 -2 0 -2 9 1 20 3 11 9 20
15 20 5 0 4 -9 -2 -20z m-997 -13 c3 -8 -1 -14 -9 -14 -15 0 -18 9 -7 20 9 9
10 9 16 -6z m1027 -11 c10 -13 10 -17 3 -12 -8 4 -13 2 -13 -6 0 -10 -2 -10
-9 1 -5 8 -7 20 -4 28 3 8 6 13 7 11 1 -2 8 -12 16 -22z m-1115 -36 c-3 -5 -1
-10 5 -10 6 0 8 -5 4 -11 -4 -8 -9 -7 -15 2 -7 12 -3 29 7 29 3 0 2 -4 -1 -10z
m1085 -4 c0 -2 -7 -7 -16 -10 -8 -3 -12 -2 -9 4 6 10 25 14 25 6z m-10 -25 c0
7 3 10 6 6 3 -3 1 -14 -5 -24 -6 -11 -11 -13 -11 -5 0 7 -4 10 -10 7 -5 -3
-10 -1 -10 5 0 6 -5 8 -12 4 -7 -4 -8 -3 -4 4 5 9 13 9 27 2 14 -8 19 -7 19 1z
m-1534 -17 c18 -14 18 -15 -5 -4 -18 10 -22 9 -16 -1 6 -8 4 -10 -5 -4 -9 6
-11 4 -5 -5 5 -8 4 -11 -3 -6 -11 7 -6 36 7 36 4 0 16 -7 27 -16z m118 -16 c8
14 61 7 58 -7 -1 -7 3 -11 10 -8 7 2 12 11 10 18 -3 11 -1 11 9 2 10 -10 9
-17 -7 -35 -11 -14 -13 -18 -3 -10 9 6 20 8 24 4 5 -4 5 -1 1 6 -4 6 -2 12 4
12 6 0 9 4 5 9 -3 5 0 13 6 17 7 4 9 3 6 -3 -4 -6 3 -19 15 -29 12 -11 18 -13
14 -6 -8 13 10 17 18 4 8 -13 -7 -27 -31 -28 -15 -1 -20 3 -17 15 3 9 -2 4
-11 -11 -9 -16 -24 -28 -36 -28 -12 0 -29 -10 -40 -22 -10 -13 -18 -18 -19
-11 0 8 -9 9 -30 3 -21 -6 -28 -5 -24 2 4 6 -2 6 -15 -1 -16 -9 -21 -9 -21 1
0 9 -3 9 -9 -2 -6 -8 -7 -18 -4 -23 6 -9 -30 -1 -57 14 -9 5 -22 2 -32 -8 -12
-10 -18 -12 -18 -4 0 6 -10 15 -22 20 -18 6 -27 3 -40 -12 -16 -18 -22 -16
-20 5 1 3 -5 9 -14 12 -10 4 -13 2 -8 -7 4 -6 -3 -3 -16 8 -13 11 -21 15 -18
10 4 -6 1 -17 -5 -25 -14 -17 -73 -28 -63 -11 7 11 -61 28 -71 17 -3 -3 -12
-1 -20 5 -7 6 -13 8 -13 4 0 -4 -7 -2 -15 5 -22 18 -18 32 5 25 11 -4 20 -3
19 2 -3 20 2 25 15 14 10 -8 16 -9 21 -1 3 5 1 10 -6 10 -7 0 -10 3 -7 6 4 3
20 -2 37 -10 17 -9 32 -12 36 -7 3 5 17 8 31 5 14 -3 32 0 40 7 8 7 14 7 14 1
0 -5 -14 -15 -30 -22 -17 -7 -29 -15 -26 -17 2 -3 14 1 26 7 16 9 25 8 38 -2
15 -11 16 -11 4 4 -9 11 -10 18 -2 23 6 3 7 11 4 17 -4 7 -2 8 5 4 6 -4 19 -2
28 6 12 9 15 9 9 1 -11 -19 5 -16 21 5 13 15 13 15 4 -5 -8 -16 -8 -24 1 -29
7 -5 8 -3 3 6 -6 10 -4 12 8 7 9 -3 19 -1 23 5 4 7 3 8 -4 4 -7 -4 -12 -2 -12
3 0 6 7 11 15 11 8 0 15 -5 15 -12 0 -6 3 -8 6 -5 4 4 1 13 -6 22 -14 17 -3
20 20 5 9 -5 19 -5 27 1 7 6 17 8 22 5 5 -4 12 -2 16 4 3 5 20 8 36 5 23 -4
29 -2 23 7 -4 7 2 5 13 -5 12 -10 24 -14 27 -9z m-669 3 c-9 -8 -36 -10 -30
-2 2 4 11 8 20 8 8 0 13 -3 10 -6z m825 -5 c0 -3 -4 -8 -10 -11 -5 -3 -10 -1
-10 4 0 6 5 11 10 11 6 0 10 -2 10 -4z m-696 -61 c-4 -8 -8 -15 -10 -15 -2 0
-4 7 -4 15 0 8 4 15 10 15 5 0 7 -7 4 -15z m1906 11 c0 -2 -6 -9 -13 -15 -10
-8 -14 -7 -14 4 0 8 6 15 14 15 7 0 13 -2 13 -4z m-110 -60 c0 -3 -4 -8 -10
-11 -5 -3 -10 -1 -10 4 0 6 5 11 10 11 6 0 10 -2 10 -4z m-300 -155 c0 -6 -4
-13 -10 -16 -5 -3 -10 1 -10 9 0 9 5 16 10 16 6 0 10 -4 10 -9z m-1335 -61
c-3 -5 -12 -7 -20 -3 -21 7 -19 13 6 13 11 0 18 -4 14 -10z"/>
<path d="M3103 3449 c-2 -23 3 -25 10 -4 4 8 3 16 -1 19 -4 3 -9 -4 -9 -15z"/>
<path d="M3179 3167 c6 -8 9 -16 6 -19 -3 -2 2 -5 10 -5 13 0 13 3 -2 19 -19
21 -31 25 -14 5z"/>
<path d="M3030 3160 c0 -5 5 -10 11 -10 5 0 7 5 4 10 -3 6 -8 10 -11 10 -2 0
-4 -4 -4 -10z"/>
<path d="M3194 3112 c0 -10 6 -19 13 -19 8 0 9 6 2 19 -5 10 -11 18 -12 18 -2
0 -3 -8 -3 -18z"/>
<path d="M3219 2818 c-5 -16 -4 -46 2 -42 4 2 7 13 6 24 -1 17 -5 26 -8 18z"/>
<path d="M3253 2813 c-17 -6 -17 -20 0 -20 8 0 14 6 14 14 0 7 -1 13 -1 12 -1
0 -7 -3 -13 -6z"/>
<path d="M3231 2684 c0 -11 3 -14 6 -6 3 7 2 16 -1 19 -3 4 -6 -2 -5 -13z"/>
<path d="M3205 2680 c-3 -5 -1 -10 4 -10 6 0 11 5 11 10 0 6 -2 10 -4 10 -3 0
-8 -4 -11 -10z"/>
<path d="M3216 2645 c4 -8 8 -15 10 -15 2 0 4 7 4 15 0 8 -4 15 -10 15 -5 0
-7 -7 -4 -15z"/>
<path d="M2056 2617 c3 -10 9 -15 12 -12 3 3 0 11 -7 18 -10 9 -11 8 -5 -6z"/>
<path d="M2070 2579 c0 -5 5 -7 10 -4 6 3 10 8 10 11 0 2 -4 4 -10 4 -5 0 -10
-5 -10 -11z"/>
<path d="M3203 2525 c0 -7 6 -11 14 -8 7 3 13 6 13 8 0 2 -6 5 -13 8 -8 3 -14
-1 -14 -8z"/>
<path d="M3221 2353 c7 -12 15 -20 18 -17 3 2 -3 12 -13 22 -17 16 -18 16 -5
-5z"/>
<path d="M3179 2343 c-1 -5 -1 -12 0 -17 1 -5 -9 -21 -23 -35 -24 -25 -24 -27
-6 -28 11 -1 22 2 25 8 4 5 -2 6 -12 2 -14 -5 -13 -1 6 20 12 14 20 30 17 36
-3 5 2 12 11 14 17 4 17 5 1 6 -10 0 -19 -2 -19 -6z"/>
<path d="M3135 2220 c-3 -6 1 -7 9 -4 18 7 21 14 7 14 -6 0 -13 -4 -16 -10z"/>
<path d="M3130 2179 c0 -5 5 -7 10 -4 6 3 10 8 10 11 0 2 -4 4 -10 4 -5 0 -10
-5 -10 -11z"/>
<path d="M3034 2089 c-3 -6 -2 -15 3 -20 5 -5 9 -1 9 11 0 23 -2 24 -12 9z"/>
<path d="M2933 2075 c0 -8 4 -12 9 -9 5 3 6 10 3 15 -9 13 -12 11 -12 -6z"/>
<path d="M3005 1891 c-3 -5 -2 -12 3 -15 5 -3 9 1 9 9 0 17 -3 19 -12 6z"/>
<path d="M3006 1818 c3 -5 10 -6 15 -3 13 9 11 12 -6 12 -8 0 -12 -4 -9 -9z"/>
<path d="M2960 1715 c-11 -13 -11 -18 0 -28 10 -9 11 -9 6 1 -4 7 -2 19 4 27
7 8 10 15 7 15 -2 0 -10 -7 -17 -15z"/>
<path d="M2856 1542 c-3 -5 1 -9 9 -9 8 0 12 4 9 9 -3 4 -7 8 -9 8 -2 0 -6 -4
-9 -8z"/>
<path d="M2895 1529 c-4 -6 -5 -12 -2 -15 2 -3 7 2 10 11 7 17 1 20 -8 4z"/>
<path d="M2825 1519 c-4 -6 -4 -13 -1 -16 3 -4 6 -1 6 6 0 7 5 9 12 5 7 -4 8
-3 4 4 -9 15 -13 15 -21 1z"/>
<path d="M2816 1475 c-9 -26 -7 -32 5 -12 6 10 9 21 6 23 -2 3 -7 -2 -11 -11z"/>
<path d="M2755 1399 c-3 -4 2 -6 10 -5 21 3 28 13 10 13 -9 0 -18 -4 -20 -8z"/>
<path d="M2715 1380 c-3 -5 -1 -10 4 -10 6 0 11 5 11 10 0 6 -2 10 -4 10 -3 0
-8 -4 -11 -10z"/>
<path d="M2756 1367 c3 -10 9 -15 12 -12 3 3 0 11 -7 18 -10 9 -11 8 -5 -6z"/>
<path d="M2676 1313 c-6 -14 -5 -15 5 -6 7 7 10 15 7 18 -3 3 -9 -2 -12 -12z"/>
<path d="M2384 1312 c3 -6 -1 -15 -10 -20 -11 -6 -13 -11 -5 -16 6 -4 11 -2
11 5 0 7 10 3 23 -9 24 -22 47 -29 47 -14 0 9 -36 44 -59 57 -9 5 -12 4 -7 -3z
m42 -33 c19 -22 19 -22 -3 -10 -24 12 -39 31 -25 31 5 0 17 -10 28 -21z"/>
<path d="M2621 1291 c-7 -5 -9 -11 -5 -14 5 -3 15 1 22 9 14 16 5 18 -17 5z"/>
<path d="M2670 1279 c0 -5 5 -7 10 -4 6 3 10 8 10 11 0 2 -4 4 -10 4 -5 0 -10
-5 -10 -11z"/>
<path d="M2461 1234 c0 -11 3 -14 6 -6 3 7 2 16 -1 19 -3 4 -6 -2 -5 -13z"/>
<path d="M2559 1213 c-13 -16 -12 -17 4 -4 9 7 17 15 17 17 0 8 -8 3 -21 -13z"/>
<path d="M2329 942 c-12 -11 -24 -27 -25 -36 -2 -14 0 -15 12 -5 8 6 12 14 10
17 -3 2 5 13 17 23 12 10 19 18 16 19 -4 0 -17 -8 -30 -18z"/>
<path d="M2359 933 c-13 -16 -12 -17 4 -4 16 13 21 21 13 21 -2 0 -10 -8 -17
-17z"/>
<path d="M2365 910 c-4 -6 -11 -7 -17 -4 -7 4 -8 2 -4 -5 6 -9 11 -9 22 0 14
11 18 19 10 19 -3 0 -8 -5 -11 -10z"/>
<path d="M2272 878 c-7 -7 -12 -16 -12 -21 0 -5 7 -1 16 8 9 9 14 18 12 20 -2
3 -10 -1 -16 -7z"/>
<path d="M2205 820 c-3 -6 1 -7 9 -4 18 7 21 14 7 14 -6 0 -13 -4 -16 -10z"/>
<path d="M2080 736 c0 -2 7 -9 15 -16 9 -7 15 -8 15 -2 0 5 -7 12 -15 16 -8 3
-15 4 -15 2z"/>
<path d="M2136 713 c-6 -14 -5 -15 5 -6 7 7 10 15 7 18 -3 3 -9 -2 -12 -12z"/>
<path d="M2045 700 c-3 -5 -11 -8 -18 -6 -7 1 -8 1 -4 -2 4 -2 2 -11 -5 -20
-7 -10 0 -6 15 7 15 14 27 26 27 28 0 7 -9 3 -15 -7z"/>
<path d="M1839 608 c-11 -8 -10 -9 4 -4 11 3 20 0 23 -9 8 -20 23 -19 20 2 -3
19 -27 25 -47 11z"/>
<path d="M1803 594 c-19 -19 -16 -29 4 -13 15 12 16 12 10 -5 -6 -16 -5 -17 8
-6 9 7 12 16 8 19 -4 4 -10 9 -13 13 -3 3 -11 0 -17 -8z"/>
<path d="M3615 1600 c3 -5 8 -10 11 -10 2 0 4 5 4 10 0 6 -5 10 -11 10 -5 0
-7 -4 -4 -10z"/>
<path d="M1755 1690 c10 -11 20 -20 23 -20 3 0 -3 9 -13 20 -10 11 -20 20 -23
20 -3 0 3 -9 13 -20z"/>
<path d="M1115 1609 c-4 -6 -5 -12 -2 -15 2 -3 7 2 10 11 7 17 1 20 -8 4z"/>
<path d="M1063 1548 c-11 -19 -13 -39 -1 -32 5 3 7 9 4 12 -3 3 -1 11 5 19 6
7 9 13 6 13 -3 0 -9 -6 -14 -12z"/>
<path d="M3571 1448 c-14 -23 -14 -23 8 -4 22 20 25 26 13 26 -4 0 -13 -10
-21 -22z"/>
<path d="M495 1147 c-11 -12 -18 -21 -16 -20 2 2 10 -2 18 -8 7 -6 13 -8 14
-3 0 5 2 19 5 32 5 27 4 27 -21 -1z"/>
<path d="M260 1029 c-12 -9 -12 -10 4 -5 14 5 17 2 12 -9 -3 -9 -2 -14 3 -10
5 3 12 -1 14 -7 3 -7 6 -8 6 -2 1 5 -5 18 -11 27 -10 13 -17 14 -28 6z"/>
<path d="M330 940 c0 -5 5 -10 11 -10 5 0 7 5 4 10 -3 6 -8 10 -11 10 -2 0 -4
-4 -4 -10z"/>
<path d="M366 923 c-6 -14 -5 -15 5 -6 7 7 10 15 7 18 -3 3 -9 -2 -12 -12z"/>
<path d="M490 826 c0 -2 7 -7 16 -10 8 -3 12 -2 9 4 -6 10 -25 14 -25 6z"/>
<path d="M546 787 c3 -10 9 -15 12 -12 3 3 0 11 -7 18 -10 9 -11 8 -5 -6z"/>
<path d="M515 780 c3 -5 8 -10 11 -10 2 0 4 5 4 10 0 6 -5 10 -11 10 -5 0 -7
-4 -4 -10z"/>
<path d="M580 740 c-8 -5 -10 -10 -5 -10 6 0 17 5 25 10 8 5 11 10 5 10 -5 0
-17 -5 -25 -10z"/>
<path d="M615 731 c-6 -11 33 -36 43 -27 3 3 0 6 -7 6 -7 0 -9 4 -6 10 4 6 -1
7 -11 3 -12 -4 -15 -3 -10 5 4 7 5 12 2 12 -3 0 -7 -4 -11 -9z"/>
<path d="M730 641 c0 -6 4 -13 10 -16 6 -3 7 1 4 9 -7 18 -14 21 -14 7z"/>
<path d="M815 580 c-3 -5 -1 -10 4 -10 6 0 11 5 11 10 0 6 -2 10 -4 10 -3 0
-8 -4 -11 -10z"/>
<path d="M874 545 c1 -8 6 -18 11 -22 4 -5 5 -2 0 6 -6 11 -4 13 8 8 23 -9 21
0 -2 13 -15 7 -19 7 -17 -5z"/>
<path d="M939 546 c6 -7 7 -17 3 -21 -4 -5 -1 -5 6 -1 7 4 20 2 29 -6 16 -12
16 -11 0 11 -9 14 -24 26 -32 27 -12 2 -13 -1 -6 -10z"/>
<path d="M3097 863 c10 -3 10 -7 0 -18 -7 -7 -16 -10 -22 -7 -5 3 -1 -4 9 -16
11 -12 21 -22 24 -22 3 0 2 3 -1 7 -4 3 1 12 11 20 16 12 15 13 -3 6 -17 -6
-18 -4 -8 9 13 15 8 29 -11 27 -6 0 -6 -3 1 -6z"/>
<path d="M3136 823 c-6 -14 -5 -15 5 -6 7 7 10 15 7 18 -3 3 -9 -2 -12 -12z"/>
<path d="M1495 781 c-3 -5 -2 -12 3 -15 5 -3 9 1 9 9 0 17 -3 19 -12 6z"/>
<path d="M1470 585 c0 -7 30 -13 34 -7 3 4 -4 9 -15 9 -10 1 -19 0 -19 -2z"/>
<path d="M1520 575 c-7 -9 -11 -17 -9 -20 3 -2 10 5 17 15 14 24 10 26 -8 5z"/>
<path d="M1570 579 c0 -9 31 -21 38 -14 3 3 0 5 -7 5 -7 0 -10 4 -7 8 3 5 -1
9 -9 9 -8 0 -15 -4 -15 -8z"/>
<path d="M1455 560 c3 -5 8 -10 11 -10 2 0 4 5 4 10 0 6 -5 10 -11 10 -5 0 -7
-4 -4 -10z"/>
<path d="M1535 560 c-3 -6 1 -7 9 -4 18 7 21 14 7 14 -6 0 -13 -4 -16 -10z"/>
<path d="M1281 536 c-8 -10 -9 -16 -1 -21 6 -4 10 -3 9 2 -4 22 3 24 24 7 l22
-19 -19 23 c-23 26 -21 26 -35 8z"/>
<path d="M1555 529 c-4 -6 -5 -12 -2 -15 2 -3 7 2 10 11 7 17 1 20 -8 4z"/>
<path d="M1073 515 c0 -8 4 -15 9 -15 4 0 8 4 8 9 0 6 -4 12 -8 15 -5 3 -9 -1
-9 -9z"/>
<path d="M1105 520 c-3 -6 1 -7 9 -4 18 7 21 14 7 14 -6 0 -13 -4 -16 -10z"/>
<path d="M1170 521 c0 -7 -7 -11 -14 -8 -10 4 -13 1 -9 -9 3 -7 9 -14 13 -14
10 0 22 31 15 38 -3 3 -5 0 -5 -7z"/>
<path d="M1110 500 c-12 -7 -10 -9 7 -7 12 0 19 5 17 9 -6 10 -6 10 -24 -2z"/>
<path d="M2986 3573 c-4 -5 -12 -8 -17 -8 -23 0 -7 -21 21 -26 36 -8 46 3 24
25 -18 18 -18 18 -28 9z"/>
<path d="M2898 3516 c-3 -16 0 -27 9 -30 20 -8 25 -7 20 2 -7 10 19 32 28 24
4 -4 6 0 3 8 -2 8 -16 16 -30 18 -20 2 -26 -2 -30 -22z"/>
<path d="M3035 3530 c-3 -6 1 -7 9 -4 18 7 21 14 7 14 -6 0 -13 -4 -16 -10z"/>
<path d="M2850 3476 c-13 -17 -3 -26 31 -26 20 0 27 4 23 14 -7 19 -41 27 -54
12z"/>
<path d="M2930 3466 c0 -2 7 -7 16 -10 8 -3 12 -2 9 4 -6 10 -25 14 -25 6z"/>
<path d="M2780 3434 c0 -11 -6 -15 -20 -11 -20 5 -48 -17 -32 -27 12 -7 43 -1
50 11 4 5 15 9 24 7 10 -1 20 2 24 7 3 5 10 7 15 4 5 -3 6 1 3 9 -8 22 -64 21
-64 0z"/>
<path d="M2695 3381 c-3 -12 -13 -21 -22 -21 -13 0 -13 -3 -2 -16 12 -14 14
-14 21 6 4 12 12 19 17 15 16 -9 22 12 7 24 -11 10 -16 8 -21 -8z"/>
<path d="M2635 3332 c-10 -10 -5 -20 13 -24 12 -3 18 1 19 12 1 15 -20 23 -32
12z"/>
<path d="M2605 3301 c-2 -5 1 -14 9 -20 10 -9 15 -8 19 3 6 15 -19 31 -28 17z"/>
<path d="M2710 3279 c0 -5 5 -7 10 -4 6 3 10 8 10 11 0 2 -4 4 -10 4 -5 0 -10
-5 -10 -11z"/>
<path d="M2576 3272 c-3 -2 -2 -10 1 -18 4 -11 9 -12 19 -3 8 6 14 15 14 19 0
7 -27 9 -34 2z"/>
<path d="M2515 3241 c-3 -2 0 -10 5 -16 14 -17 60 -7 53 11 -4 12 -48 16 -58
5z"/>
<path d="M2490 3206 c0 -9 -7 -16 -15 -16 -8 0 -15 -9 -15 -19 0 -16 -5 -18
-30 -15 -31 5 -42 -12 -15 -22 8 -4 12 -10 9 -16 -15 -23 35 18 52 43 10 16
25 29 32 29 16 0 11 22 -6 28 -7 2 -12 -3 -12 -12z"/>
<path d="M2615 3200 c3 -5 8 -10 11 -10 2 0 4 5 4 10 0 6 -5 10 -11 10 -5 0
-7 -4 -4 -10z"/>
<path d="M2340 3103 c0 -12 -9 -28 -21 -36 -15 -11 -17 -17 -8 -22 7 -5 17 -2
23 7 6 8 17 13 25 10 8 -3 11 0 7 7 -4 6 -2 11 4 11 6 0 9 4 6 9 -3 5 1 12 10
15 23 9 7 26 -21 24 -19 -2 -25 -8 -25 -25z"/>
<path d="M2284 3025 c-4 -10 -14 -15 -24 -12 -10 2 -24 1 -31 -4 -11 -8 -10
-12 5 -24 13 -10 23 -11 31 -5 7 5 15 6 19 2 4 -4 7 -2 6 3 -4 18 0 35 8 33 4
-2 8 1 10 7 6 17 -18 17 -24 0z"/>
<path d="M2330 3020 c0 -5 5 -10 11 -10 5 0 7 5 4 10 -3 6 -8 10 -11 10 -2 0
-4 -4 -4 -10z"/>
<path d="M2396 2995 c-6 -17 -37 -20 -53 -4 -7 7 -9 3 -6 -15 3 -14 12 -26 20
-26 12 0 13 -3 4 -14 -9 -11 -9 -16 0 -22 8 -4 9 -3 5 4 -4 7 -2 12 3 12 6 0
11 -6 11 -12 0 -7 6 -4 12 7 13 23 29 35 38 30 4 -2 4 9 2 26 -5 31 -26 39
-36 14z"/>
<path d="M2197 2982 c-2 -4 -3 -18 -3 -32 1 -35 29 -33 30 2 2 25 -18 47 -27
30z"/>
<path d="M2250 2939 c0 -5 5 -7 10 -4 6 3 10 8 10 11 0 2 -4 4 -10 4 -5 0 -10
-5 -10 -11z"/>
<path d="M2135 2890 c-7 -11 16 -50 29 -50 5 0 6 3 3 7 -4 3 -2 12 4 19 8 9 5
15 -10 23 -12 7 -22 7 -26 1z"/>
<path d="M2107 2845 c6 -17 25 -15 31 3 2 7 -5 12 -17 12 -14 0 -19 -5 -14
-15z"/>
<path d="M2206 2835 c14 -21 34 -26 34 -9 0 3 -4 2 -10 -1 -14 -9 -12 8 3 25
10 12 9 12 -5 1 -12 -9 -18 -10 -18 -2 0 6 -5 11 -10 11 -6 0 -3 -11 6 -25z"/>
<path d="M2081 2843 c3 -21 -3 -32 -19 -37 -10 -4 -19 -13 -19 -22 0 -8 6 -13
13 -10 8 3 18 -3 23 -12 6 -9 10 -12 11 -7 0 6 -4 17 -10 25 -12 20 10 33 29
17 11 -9 10 -4 -3 21 -15 30 -28 42 -25 25z"/>
<path d="M2135 2820 c-3 -5 -1 -10 4 -10 6 0 11 5 11 10 0 6 -2 10 -4 10 -3 0
-8 -4 -11 -10z"/>
<path d="M1996 2765 c-8 -8 -19 -15 -25 -15 -6 0 -11 -6 -11 -14 0 -8 -9 -18
-20 -21 -11 -4 -18 -11 -15 -16 5 -8 -7 -13 -26 -11 -3 1 -6 -5 -6 -13 0 -20
27 -28 33 -10 4 8 11 12 17 8 6 -3 7 -1 3 5 -4 8 0 12 11 12 15 0 16 2 3 10
-13 9 -13 10 0 11 8 1 18 1 23 0 4 0 7 8 7 20 0 15 5 19 15 15 8 -3 22 -3 30
0 12 5 13 10 4 20 -15 18 -24 18 -43 -1z"/>
<path d="M2113 2755 c0 -8 4 -12 9 -9 5 3 6 10 3 15 -9 13 -12 11 -12 -6z"/>
<path d="M1832 2641 c-24 -21 -21 -54 4 -44 11 4 12 9 4 18 -9 11 -4 13 22 11
41 -4 52 2 37 20 -16 19 -39 17 -67 -5z"/>
<path d="M1859 2593 c-13 -16 -12 -17 4 -4 16 13 21 21 13 21 -2 0 -10 -8 -17
-17z"/>
<path d="M1777 2580 c-8 -11 -17 -17 -20 -13 -4 3 -7 -4 -7 -16 0 -12 -4 -19
-10 -16 -6 3 -13 -1 -16 -9 -3 -9 -12 -16 -20 -16 -19 0 -18 -26 1 -34 8 -3
14 -2 14 2 -3 18 2 32 11 32 6 0 19 9 30 20 11 11 20 25 20 30 0 6 12 10 26
10 23 0 24 2 10 15 -19 19 -22 19 -39 -5z"/>
<path d="M1664 2453 c1 -17 6 -27 14 -25 6 1 12 -2 12 -8 0 -5 5 -10 11 -10 8
0 8 4 0 14 -7 8 -11 23 -9 32 2 11 -4 20 -13 22 -12 2 -16 -4 -15 -25z"/>
<path d="M1635 2410 c-10 -11 -23 -20 -29 -19 -27 3 -38 -2 -32 -16 3 -9 0
-15 -8 -15 -7 0 -19 -7 -26 -15 -7 -9 -19 -14 -26 -11 -8 3 -18 -4 -24 -15 -6
-11 -15 -17 -19 -14 -12 7 -21 -19 -16 -44 3 -15 -2 -20 -18 -19 -39 2 -46 -2
-40 -18 3 -8 12 -13 21 -9 8 3 24 -3 36 -12 19 -17 20 -17 7 0 -18 23 4 54 26
36 11 -10 12 -8 5 12 -11 33 -9 55 7 51 23 -5 51 9 51 24 0 11 6 14 23 9 15
-4 18 -3 8 3 -11 8 -11 11 0 18 8 5 24 9 37 10 25 1 43 14 21 14 -8 1 -5 6 8
13 14 8 19 17 14 25 -6 9 -12 7 -26 -8z"/>
<path d="M1372 2211 c-10 -6 -10 -10 2 -20 10 -9 16 -9 21 -1 10 16 -7 31 -23
21z"/>
<path d="M1345 2180 c-8 -13 4 -32 16 -25 12 8 12 35 0 35 -6 0 -13 -4 -16
-10z"/>
<path d="M1250 2137 c0 -10 -4 -16 -8 -13 -4 2 -14 1 -22 -4 -12 -7 -11 -10 3
-16 12 -4 23 0 31 11 9 13 22 16 44 13 28 -4 42 6 42 27 0 3 -20 3 -45 2 -36
-1 -45 -5 -45 -20z"/>
<path d="M1336 2093 c-6 -14 -5 -15 5 -6 7 7 10 15 7 18 -3 3 -9 -2 -12 -12z"/>
<path d="M1163 2085 c0 -14 19 -21 42 -15 6 1 16 3 23 3 22 1 -4 18 -35 23
-22 3 -30 1 -30 -11z"/>
<path d="M1133 2056 c3 -8 -2 -16 -15 -19 -25 -7 -14 -27 15 -27 18 0 19 2 7
10 -12 8 -11 11 8 16 18 5 20 9 11 20 -15 18 -33 18 -26 0z"/>
<path d="M1076 2004 c-9 -22 -8 -24 9 -24 8 0 15 5 15 11 0 5 5 7 10 4 6 -3
10 -4 10 -1 0 3 -9 10 -19 15 -15 8 -20 7 -25 -5z"/>
<path d="M1045 1971 c3 -6 -4 -15 -16 -21 -14 -8 -18 -15 -11 -22 11 -11 35
-1 27 12 -3 4 5 10 16 13 23 6 17 27 -7 27 -8 0 -13 -4 -9 -9z"/>
<path d="M1133 1933 c-3 -7 -2 -20 1 -29 7 -17 13 -17 16 1 1 6 6 17 10 26 6
11 4 16 -6 16 -9 0 -18 -6 -21 -14z"/>
<path d="M989 1929 c-6 -31 -5 -38 6 -43 19 -7 26 20 9 34 -8 7 -14 11 -15 9z"/>
<path d="M3710 1922 c0 -5 7 -9 15 -9 8 0 12 4 9 9 -3 4 -9 8 -15 8 -5 0 -9
-4 -9 -8z"/>
<path d="M950 1893 c-8 -3 -19 -12 -23 -20 -5 -7 -12 -11 -18 -8 -5 4 -9 -3
-9 -14 0 -13 7 -21 16 -21 10 0 14 6 11 15 -4 8 -2 17 3 20 6 4 10 1 10 -6 0
-9 3 -9 14 0 11 9 15 9 19 -1 4 -10 6 -10 6 1 1 11 4 11 19 0 9 -7 6 -1 -7 14
-14 15 -25 27 -25 26 -1 0 -8 -3 -16 -6z"/>
<path d="M1107 1883 c-12 -12 -7 -22 8 -17 8 4 15 10 15 15 0 11 -14 12 -23 2z"/>
<path d="M1156 1882 c-3 -5 1 -9 9 -9 8 0 12 4 9 9 -3 4 -7 8 -9 8 -2 0 -6 -4
-9 -8z"/>
<path d="M1235 1849 c-4 -6 -5 -12 -2 -15 2 -3 7 2 10 11 7 17 1 20 -8 4z"/>
<path d="M877 1833 c-12 -12 -7 -30 8 -30 17 0 18 6 7 25 -5 7 -11 9 -15 5z"/>
<path d="M991 1807 c-8 -10 -7 -14 2 -14 8 0 14 6 14 14 0 7 -1 13 -2 13 -2 0
-8 -6 -14 -13z"/>
<path d="M845 1800 c-8 -13 0 -23 21 -26 13 -2 13 0 2 14 -7 9 -13 18 -14 20
-1 2 -5 -2 -9 -8z"/>
<path d="M812 1764 c-5 -10 -20 -18 -33 -19 -16 -1 -23 -8 -23 -19 1 -9 -3
-16 -10 -15 -24 3 -37 -1 -31 -11 8 -13 54 -9 52 4 -1 6 4 11 11 12 6 1 17 2
22 3 6 0 10 8 10 16 0 18 12 19 27 4 9 -9 10 -6 6 10 -7 29 -20 35 -31 15z"/>
<path d="M665 1680 c-3 -5 4 -14 15 -20 11 -6 20 -8 20 -4 0 3 6 1 14 -5 12
-10 13 -8 9 8 -3 12 -8 21 -12 22 -3 0 -14 2 -23 4 -10 2 -20 -1 -23 -5z"/>
<path d="M1030 1683 c0 -1 8 -7 18 -12 13 -7 19 -6 19 2 0 7 -9 13 -19 13 -10
0 -18 -1 -18 -3z"/>
<path d="M3733 1675 c0 -8 4 -12 9 -9 5 3 6 10 3 15 -9 13 -12 11 -12 -6z"/>
<path d="M643 1653 c-7 -3 -13 -11 -13 -19 0 -9 -4 -13 -8 -10 -4 2 -14 1 -22
-5 -11 -6 -12 -9 -2 -9 7 0 10 -4 7 -10 -3 -5 1 -10 9 -10 8 0 18 9 21 20 4
11 9 18 13 16 4 -2 12 2 19 9 14 15 -2 26 -24 18z"/>
<path d="M825 1629 c-13 -13 -18 -31 -17 -54 2 -26 -1 -35 -13 -35 -8 0 -15
-4 -15 -10 0 -5 -9 -19 -20 -30 -11 -11 -20 -18 -20 -15 0 3 -6 0 -14 -7 -8
-7 -11 -17 -6 -22 5 -5 6 -15 3 -22 -3 -9 1 -14 12 -14 9 0 14 4 11 9 -6 9 49
61 64 61 5 0 16 12 24 28 8 15 18 26 23 25 4 -2 8 2 8 7 0 14 27 30 39 23 5
-3 6 -1 2 5 -4 7 -14 12 -22 12 -14 0 -17 8 -17 43 0 22 -17 21 -42 -4z"/>
<path d="M578 1575 c11 -15 19 -19 24 -12 8 14 -5 30 -27 33 -12 2 -12 -2 3
-21z"/>
<path d="M535 1547 c-11 -12 -19 -25 -17 -29 2 -8 -22 -12 -43 -9 -5 1 -2 -6
8 -16 17 -17 19 -17 28 0 6 9 17 17 26 17 9 0 13 6 9 15 -3 10 1 15 13 15 10
0 18 7 18 15 0 21 -18 17 -42 -8z"/>
<path d="M3593 1545 c0 -8 4 -12 9 -9 4 3 8 9 8 15 0 5 -4 9 -8 9 -5 0 -9 -7
-9 -15z"/>
<path d="M603 1532 c-9 -15 -7 -23 8 -43 11 -13 19 -19 18 -14 -3 24 2 35 17
35 9 0 14 6 11 13 -2 6 -10 11 -16 10 -6 -2 -11 2 -11 7 0 16 -14 12 -27 -8z"/>
<path d="M897 1524 c2 -7 11 -10 19 -7 19 7 18 10 -5 16 -13 3 -18 1 -14 -9z"/>
<path d="M915 1500 c-3 -5 -1 -10 4 -10 6 0 11 5 11 10 0 6 -2 10 -4 10 -3 0
-8 -4 -11 -10z"/>
<path d="M516 1473 c-6 -14 -5 -15 5 -6 7 7 10 15 7 18 -3 3 -9 -2 -12 -12z"/>
<path d="M429 1470 c-5 -36 -2 -45 14 -48 10 -2 17 3 17 12 0 15 11 20 35 17
6 -1 1 6 -9 14 -22 17 -55 20 -57 5z"/>
<path d="M774 1456 c-10 -8 -17 -16 -14 -19 3 -2 14 4 24 14 23 22 18 25 -10
5z"/>
<path d="M475 1419 c-3 -4 2 -6 10 -5 21 3 28 13 10 13 -9 0 -18 -4 -20 -8z"/>
<path d="M835 1369 c-4 -6 -5 -12 -2 -15 2 -3 7 2 10 11 7 17 1 20 -8 4z"/>
<path d="M323 1363 c-18 -6 -16 -33 1 -33 15 0 30 27 18 33 -4 3 -13 2 -19 0z"/>
<path d="M272 1317 c-23 -25 -29 -47 -12 -47 9 0 14 14 11 33 0 4 4 7 9 7 6 0
10 -4 10 -10 0 -5 5 -10 11 -10 5 0 8 4 5 9 -4 5 -1 11 5 13 7 2 6 8 -3 16
-12 9 -19 7 -36 -11z"/>
<path d="M775 1300 c3 -5 8 -10 11 -10 2 0 4 5 4 10 0 6 -5 10 -11 10 -5 0 -7
-4 -4 -10z"/>
<path d="M463 1285 c0 -8 4 -15 9 -15 4 0 8 4 8 9 0 6 -4 12 -8 15 -5 3 -9 -1
-9 -9z"/>
<path d="M720 1271 c0 -6 4 -13 10 -16 6 -3 7 1 4 9 -7 18 -14 21 -14 7z"/>
<path d="M780 1243 c0 -10 4 -14 8 -8 4 6 11 13 16 18 5 4 2 7 -7 7 -10 0 -17
-8 -17 -17z"/>
<path d="M696 1227 c3 -10 9 -15 12 -12 3 3 0 11 -7 18 -10 9 -11 8 -5 -6z"/>
<path d="M166 1215 c-8 -23 1 -35 27 -35 13 0 17 3 11 8 -6 4 -15 15 -21 26
-9 17 -11 17 -17 1z"/>
<path d="M652 1205 c-9 -20 -9 -23 3 -18 8 3 13 9 10 13 -3 5 3 10 12 12 16 3
16 4 2 10 -11 4 -20 -1 -27 -17z"/>
<path d="M104 1179 c-5 -9 18 -25 36 -25 8 1 16 9 18 18 3 14 -3 17 -23 16
-15 -2 -28 -5 -31 -9z"/>
<path d="M670 1171 c0 -7 -5 -9 -12 -5 -7 5 -8 3 -3 -5 5 -9 10 -10 18 -2 6 6
8 14 4 18 -4 3 -7 1 -7 -6z"/>
<path d="M90 1138 c0 -19 2 -20 10 -8 13 19 13 30 0 30 -5 0 -10 -10 -10 -22z"/>
<path d="M115 1090 c3 -5 8 -10 11 -10 2 0 4 5 4 10 0 6 -5 10 -11 10 -5 0 -7
-4 -4 -10z"/>
<path d="M3200 890 c-9 -6 -10 -10 -3 -10 6 0 15 5 18 10 8 12 4 12 -15 0z"/>
<path d="M3230 839 c0 -5 5 -7 10 -4 6 3 10 8 10 11 0 2 -4 4 -10 4 -5 0 -10
-5 -10 -11z"/>
<path d="M3266 838 c3 -5 10 -6 15 -3 13 9 11 12 -6 12 -8 0 -12 -4 -9 -9z"/>
<path d="M233 804 c1 -21 19 -26 34 -9 4 4 3 5 -4 1 -6 -3 -16 2 -22 11 -9 16
-10 16 -8 -3z"/>
<path d="M300 716 c0 -2 11 -6 25 -8 13 -3 22 -1 19 3 -5 9 -44 13 -44 5z"/>
<path d="M356 687 c-16 -12 -16 -13 3 -13 11 0 18 3 15 7 -2 4 2 10 8 12 7 3
8 6 2 6 -5 1 -18 -5 -28 -12z"/>
<path d="M3055 619 c-3 -4 2 -6 10 -5 21 3 28 13 10 13 -9 0 -18 -4 -20 -8z"/>
<path d="M3039 573 c-13 -16 -12 -17 4 -4 16 13 21 21 13 21 -2 0 -10 -8 -17
-17z"/>
<path d="M2953 543 c4 -3 1 -13 -6 -22 -11 -14 -10 -14 6 -2 20 15 22 31 5 31
-6 0 -8 -3 -5 -7z"/>
<path d="M2854 484 c-18 -14 -18 -14 6 -3 31 14 36 19 24 19 -6 0 -19 -7 -30
-16z"/>
<path d="M635 470 c-3 -5 -1 -10 4 -10 6 0 11 5 11 10 0 6 -2 10 -4 10 -3 0
-8 -4 -11 -10z"/>
<path d="M730 429 c0 -5 3 -9 8 -10 4 0 15 -2 26 -4 14 -3 16 -1 7 8 -14 14
-41 18 -41 6z"/>
<path d="M2720 420 c-12 -7 -10 -9 8 -7 12 0 22 5 22 9 0 11 -12 10 -30 -2z"/>
<path d="M2686 401 c-3 -5 1 -11 9 -14 9 -4 12 -1 8 9 -6 16 -10 17 -17 5z"/>
<path d="M2655 390 c-7 -11 22 -26 32 -16 4 3 -1 6 -11 6 -9 0 -14 5 -11 10 3
6 4 10 1 10 -3 0 -8 -5 -11 -10z"/>
<path d="M816 347 c3 -10 9 -15 12 -12 3 3 0 11 -7 18 -10 9 -11 8 -5 -6z"/>
<path d="M2611 324 c0 -11 3 -14 6 -6 3 7 2 16 -1 19 -3 4 -6 -2 -5 -13z"/>
<path d="M1036 273 c-6 -14 -5 -15 5 -6 7 7 10 15 7 18 -3 3 -9 -2 -12 -12z"/>
<path d="M2296 252 c-3 -5 1 -9 9 -9 8 0 12 4 9 9 -3 4 -7 8 -9 8 -2 0 -6 -4
-9 -8z"/>
<path d="M2330 239 c0 -5 5 -7 10 -4 6 3 10 8 10 11 0 2 -4 4 -10 4 -5 0 -10
-5 -10 -11z"/>
<path d="M2185 230 c-3 -6 -17 -8 -31 -6 -13 3 -24 1 -24 -3 0 -5 15 -8 33 -8
20 1 34 6 34 14 0 16 -4 16 -12 3z"/>
<path d="M2217 233 c-4 -3 -7 -11 -7 -17 0 -6 5 -5 12 2 6 6 9 14 7 17 -3 3
-9 2 -12 -2z"/>
<path d="M1286 217 c3 -10 9 -15 12 -12 3 3 0 11 -7 18 -10 9 -11 8 -5 -6z"/>
<path d="M1330 206 c-10 -17 -10 -19 1 -8 7 6 17 12 22 12 4 0 5 -6 1 -12 -4
-7 -4 -10 1 -6 4 4 15 2 24 -4 13 -10 14 -10 4 2 -20 22 -15 32 10 19 17 -9
19 -9 11 1 -20 21 -60 19 -74 -4z"/>
<path d="M2070 219 c0 -5 5 -7 10 -4 6 3 10 8 10 11 0 2 -4 4 -10 4 -5 0 -10
-5 -10 -11z"/>
<path d="M2106 217 c3 -10 9 -15 12 -12 3 3 0 11 -7 18 -10 9 -11 8 -5 -6z"/>
<path d="M1260 211 c0 -6 4 -13 10 -16 6 -3 7 1 4 9 -7 18 -14 21 -14 7z"/>
<path d="M1230 199 c0 -5 5 -7 10 -4 6 3 10 8 10 11 0 2 -4 4 -10 4 -5 0 -10
-5 -10 -11z"/>
<path d="M1670 203 c0 -5 4 -14 9 -21 7 -11 9 -11 14 1 3 8 3 18 0 21 -9 8
-23 7 -23 -1z"/>
<path d="M1820 195 c-8 -10 -9 -15 -1 -15 6 0 11 5 11 11 0 5 5 7 12 3 23 -15
57 -12 69 4 11 14 11 15 -1 5 -17 -16 -34 -17 -24 -2 5 8 1 8 -13 0 -13 -7
-23 -7 -30 0 -6 6 -14 5 -23 -6z"/>
<path d="M1650 180 c0 -5 5 -10 11 -10 5 0 7 5 4 10 -3 6 -8 10 -11 10 -2 0
-4 -4 -4 -10z"/>
<path d="M1710 180 c0 -5 5 -10 11 -10 5 0 7 5 4 10 -3 6 -8 10 -11 10 -2 0
-4 -4 -4 -10z"/>
<path d="M1910 169 c0 -5 5 -7 10 -4 6 3 10 8 10 11 0 2 -4 4 -10 4 -5 0 -10
-5 -10 -11z"/>
<path d="M1796 158 c3 -5 10 -6 15 -3 13 9 11 12 -6 12 -8 0 -12 -4 -9 -9z"/>
</g>
</svg>
